<?xml version="1.0" encoding="utf-8" standalone="no"?>
<!DOCTYPE svg PUBLIC "-//W3C//DTD SVG 1.1//EN"
  "http://www.w3.org/Graphics/SVG/1.1/DTD/svg11.dtd">
<svg xmlns:xlink="http://www.w3.org/1999/xlink" width="464.851562pt" height="320.3425pt" viewBox="0 0 464.851562 320.3425" xmlns="http://www.w3.org/2000/svg" version="1.1">
 <metadata>
  <rdf:RDF xmlns:dc="http://purl.org/dc/elements/1.1/" xmlns:cc="http://creativecommons.org/ns#" xmlns:rdf="http://www.w3.org/1999/02/22-rdf-syntax-ns#">
   <cc:Work>
    <dc:type rdf:resource="http://purl.org/dc/dcmitype/StillImage"/>
    <dc:date>2026-09-03T07:59:05.605826</dc:date>
    <dc:format>image/svg+xml</dc:format>
    <dc:creator>
     <cc:Agent>
      <dc:title>Matplotlib v3.10.9, https://matplotlib.org/</dc:title>
     </cc:Agent>
    </dc:creator>
   </cc:Work>
  </rdf:RDF>
 </metadata>
 <defs>
  <style type="text/css">*{stroke-linejoin: round; stroke-linecap: butt}</style>
 </defs>
 <g id="figure_1">
  <g id="patch_1">
   <path d="M 0 320.3425 
L 464.851562 320.3425 
L 464.851562 0 
L 0 0 
z
" style="fill: #ffffff"/>
  </g>
  <g id="axes_1">
   <g id="patch_2">
    <path d="M 50.851563 287.28 
L 461.251562 287.28 
L 461.251562 3.6 
L 50.851563 3.6 
z
" style="fill: #ffffff"/>
   </g>
   <g id="line2d_1">
    <path d="M 50.851563 145.769784 
L 461.251562 145.769784 
" clip-path="url(#p202f19815d)" style="fill: none; stroke: #6e6e6e; stroke-width: 0.8; stroke-linecap: square"/>
   </g>
   <g id="line2d_2">
    <path d="M 256.051562 287.28 
L 256.051562 3.6 
" clip-path="url(#p202f19815d)" style="fill: none; stroke: #6e6e6e; stroke-width: 0.8; stroke-linecap: square"/>
   </g>
   <g id="matplotlib.axis_1">
    <g id="xtick_1">
     <g id="line2d_3">
      <path d="M 69.506108 287.28 
L 69.506108 3.6 
" clip-path="url(#p202f19815d)" style="fill: none; stroke-dasharray: 2.59,1.12; stroke-dashoffset: 0; stroke: #b8b8b8; stroke-opacity: 0.22; stroke-width: 0.7"/>
     </g>
     <g id="line2d_4">
      <defs>
       <path id="m8d0aa82cef" d="M 0 0 
L 0 -4 
" style="stroke: #000000; stroke-width: 0.9"/>
      </defs>
      <g>
       <use xlink:href="#m8d0aa82cef" x="69.506108" y="287.28" style="stroke: #000000; stroke-width: 0.9"/>
      </g>
     </g>
     <g id="line2d_5">
      <defs>
       <path id="md3f5008d0b" d="M 0 0 
L 0 4 
" style="stroke: #000000; stroke-width: 0.9"/>
      </defs>
      <g>
       <use xlink:href="#md3f5008d0b" x="69.506108" y="3.6" style="stroke: #000000; stroke-width: 0.9"/>
      </g>
     </g>
     <g id="text_1">
      <text style="font-size: 10px; font-family: 'Times New Roman', 'DejaVu Serif', serif; text-anchor: middle" x="69.506108" y="298.878437" transform="rotate(-0 69.506108 298.878437)">−0.04</text>
     </g>
    </g>
    <g id="xtick_2">
     <g id="line2d_6">
      <path d="M 116.142472 287.28 
L 116.142472 3.6 
" clip-path="url(#p202f19815d)" style="fill: none; stroke-dasharray: 2.59,1.12; stroke-dashoffset: 0; stroke: #b8b8b8; stroke-opacity: 0.22; stroke-width: 0.7"/>
     </g>
     <g id="line2d_7">
      <g>
       <use xlink:href="#m8d0aa82cef" x="116.142472" y="287.28" style="stroke: #000000; stroke-width: 0.9"/>
      </g>
     </g>
     <g id="line2d_8">
      <g>
       <use xlink:href="#md3f5008d0b" x="116.142472" y="3.6" style="stroke: #000000; stroke-width: 0.9"/>
      </g>
     </g>
     <g id="text_2">
      <text style="font-size: 10px; font-family: 'Times New Roman', 'DejaVu Serif', serif; text-anchor: middle" x="116.142472" y="298.878437" transform="rotate(-0 116.142472 298.878437)">−0.03</text>
     </g>
    </g>
    <g id="xtick_3">
     <g id="line2d_9">
      <path d="M 162.778835 287.28 
L 162.778835 3.6 
" clip-path="url(#p202f19815d)" style="fill: none; stroke-dasharray: 2.59,1.12; stroke-dashoffset: 0; stroke: #b8b8b8; stroke-opacity: 0.22; stroke-width: 0.7"/>
     </g>
     <g id="line2d_10">
      <g>
       <use xlink:href="#m8d0aa82cef" x="162.778835" y="287.28" style="stroke: #000000; stroke-width: 0.9"/>
      </g>
     </g>
     <g id="line2d_11">
      <g>
       <use xlink:href="#md3f5008d0b" x="162.778835" y="3.6" style="stroke: #000000; stroke-width: 0.9"/>
      </g>
     </g>
     <g id="text_3">
      <text style="font-size: 10px; font-family: 'Times New Roman', 'DejaVu Serif', serif; text-anchor: middle" x="162.778835" y="298.878437" transform="rotate(-0 162.778835 298.878437)">−0.02</text>
     </g>
    </g>
    <g id="xtick_4">
     <g id="line2d_12">
      <path d="M 209.415199 287.28 
L 209.415199 3.6 
" clip-path="url(#p202f19815d)" style="fill: none; stroke-dasharray: 2.59,1.12; stroke-dashoffset: 0; stroke: #b8b8b8; stroke-opacity: 0.22; stroke-width: 0.7"/>
     </g>
     <g id="line2d_13">
      <g>
       <use xlink:href="#m8d0aa82cef" x="209.415199" y="287.28" style="stroke: #000000; stroke-width: 0.9"/>
      </g>
     </g>
     <g id="line2d_14">
      <g>
       <use xlink:href="#md3f5008d0b" x="209.415199" y="3.6" style="stroke: #000000; stroke-width: 0.9"/>
      </g>
     </g>
     <g id="text_4">
      <text style="font-size: 10px; font-family: 'Times New Roman', 'DejaVu Serif', serif; text-anchor: middle" x="209.415199" y="298.878437" transform="rotate(-0 209.415199 298.878437)">−0.01</text>
     </g>
    </g>
    <g id="xtick_5">
     <g id="line2d_15">
      <path d="M 256.051562 287.28 
L 256.051562 3.6 
" clip-path="url(#p202f19815d)" style="fill: none; stroke-dasharray: 2.59,1.12; stroke-dashoffset: 0; stroke: #b8b8b8; stroke-opacity: 0.22; stroke-width: 0.7"/>
     </g>
     <g id="line2d_16">
      <g>
       <use xlink:href="#m8d0aa82cef" x="256.051562" y="287.28" style="stroke: #000000; stroke-width: 0.9"/>
      </g>
     </g>
     <g id="line2d_17">
      <g>
       <use xlink:href="#md3f5008d0b" x="256.051562" y="3.6" style="stroke: #000000; stroke-width: 0.9"/>
      </g>
     </g>
     <g id="text_5">
      <text style="font-size: 10px; font-family: 'Times New Roman', 'DejaVu Serif', serif; text-anchor: middle" x="256.051562" y="298.878437" transform="rotate(-0 256.051562 298.878437)">0.00</text>
     </g>
    </g>
    <g id="xtick_6">
     <g id="line2d_18">
      <path d="M 302.687926 287.28 
L 302.687926 3.6 
" clip-path="url(#p202f19815d)" style="fill: none; stroke-dasharray: 2.59,1.12; stroke-dashoffset: 0; stroke: #b8b8b8; stroke-opacity: 0.22; stroke-width: 0.7"/>
     </g>
     <g id="line2d_19">
      <g>
       <use xlink:href="#m8d0aa82cef" x="302.687926" y="287.28" style="stroke: #000000; stroke-width: 0.9"/>
      </g>
     </g>
     <g id="line2d_20">
      <g>
       <use xlink:href="#md3f5008d0b" x="302.687926" y="3.6" style="stroke: #000000; stroke-width: 0.9"/>
      </g>
     </g>
     <g id="text_6">
      <text style="font-size: 10px; font-family: 'Times New Roman', 'DejaVu Serif', serif; text-anchor: middle" x="302.687926" y="298.878437" transform="rotate(-0 302.687926 298.878437)">0.01</text>
     </g>
    </g>
    <g id="xtick_7">
     <g id="line2d_21">
      <path d="M 349.32429 287.28 
L 349.32429 3.6 
" clip-path="url(#p202f19815d)" style="fill: none; stroke-dasharray: 2.59,1.12; stroke-dashoffset: 0; stroke: #b8b8b8; stroke-opacity: 0.22; stroke-width: 0.7"/>
     </g>
     <g id="line2d_22">
      <g>
       <use xlink:href="#m8d0aa82cef" x="349.32429" y="287.28" style="stroke: #000000; stroke-width: 0.9"/>
      </g>
     </g>
     <g id="line2d_23">
      <g>
       <use xlink:href="#md3f5008d0b" x="349.32429" y="3.6" style="stroke: #000000; stroke-width: 0.9"/>
      </g>
     </g>
     <g id="text_7">
      <text style="font-size: 10px; font-family: 'Times New Roman', 'DejaVu Serif', serif; text-anchor: middle" x="349.32429" y="298.878437" transform="rotate(-0 349.32429 298.878437)">0.02</text>
     </g>
    </g>
    <g id="xtick_8">
     <g id="line2d_24">
      <path d="M 395.960653 287.28 
L 395.960653 3.6 
" clip-path="url(#p202f19815d)" style="fill: none; stroke-dasharray: 2.59,1.12; stroke-dashoffset: 0; stroke: #b8b8b8; stroke-opacity: 0.22; stroke-width: 0.7"/>
     </g>
     <g id="line2d_25">
      <g>
       <use xlink:href="#m8d0aa82cef" x="395.960653" y="287.28" style="stroke: #000000; stroke-width: 0.9"/>
      </g>
     </g>
     <g id="line2d_26">
      <g>
       <use xlink:href="#md3f5008d0b" x="395.960653" y="3.6" style="stroke: #000000; stroke-width: 0.9"/>
      </g>
     </g>
     <g id="text_8">
      <text style="font-size: 10px; font-family: 'Times New Roman', 'DejaVu Serif', serif; text-anchor: middle" x="395.960653" y="298.878437" transform="rotate(-0 395.960653 298.878437)">0.03</text>
     </g>
    </g>
    <g id="xtick_9">
     <g id="line2d_27">
      <path d="M 442.597017 287.28 
L 442.597017 3.6 
" clip-path="url(#p202f19815d)" style="fill: none; stroke-dasharray: 2.59,1.12; stroke-dashoffset: 0; stroke: #b8b8b8; stroke-opacity: 0.22; stroke-width: 0.7"/>
     </g>
     <g id="line2d_28">
      <g>
       <use xlink:href="#m8d0aa82cef" x="442.597017" y="287.28" style="stroke: #000000; stroke-width: 0.9"/>
      </g>
     </g>
     <g id="line2d_29">
      <g>
       <use xlink:href="#md3f5008d0b" x="442.597017" y="3.6" style="stroke: #000000; stroke-width: 0.9"/>
      </g>
     </g>
     <g id="text_9">
      <text style="font-size: 10px; font-family: 'Times New Roman', 'DejaVu Serif', serif; text-anchor: middle" x="442.597017" y="298.878437" transform="rotate(-0 442.597017 298.878437)">0.04</text>
     </g>
    </g>
    <g id="text_10">
     <text style="font-size: 12px; font-family: 'Times New Roman', 'DejaVu Serif', serif; text-anchor: middle" x="256.051562" y="314.07625" transform="rotate(-0 256.051562 314.07625)">Story drift (rad)</text>
    </g>
   </g>
   <g id="matplotlib.axis_2">
    <g id="ytick_1">
     <g id="line2d_30">
      <path d="M 50.851563 277.683292 
L 461.251562 277.683292 
" clip-path="url(#p202f19815d)" style="fill: none; stroke-dasharray: 2.59,1.12; stroke-dashoffset: 0; stroke: #b8b8b8; stroke-opacity: 0.22; stroke-width: 0.7"/>
     </g>
     <g id="line2d_31">
      <defs>
       <path id="m536bc50e9a" d="M 0 0 
L 4 0 
" style="stroke: #000000; stroke-width: 0.9"/>
      </defs>
      <g>
       <use xlink:href="#m536bc50e9a" x="50.851563" y="277.683292" style="stroke: #000000; stroke-width: 0.9"/>
      </g>
     </g>
     <g id="line2d_32">
      <defs>
       <path id="m802afdf9ef" d="M 0 0 
L -4 0 
" style="stroke: #000000; stroke-width: 0.9"/>
      </defs>
      <g>
       <use xlink:href="#m802afdf9ef" x="461.251562" y="277.683292" style="stroke: #000000; stroke-width: 0.9"/>
      </g>
     </g>
     <g id="text_11">
      <text style="font-size: 10px; font-family: 'Times New Roman', 'DejaVu Serif', serif; text-anchor: end" x="46.851563" y="281.482511" transform="rotate(-0 46.851563 281.482511)">−400</text>
     </g>
    </g>
    <g id="ytick_2">
     <g id="line2d_33">
      <path d="M 50.851563 244.704915 
L 461.251562 244.704915 
" clip-path="url(#p202f19815d)" style="fill: none; stroke-dasharray: 2.59,1.12; stroke-dashoffset: 0; stroke: #b8b8b8; stroke-opacity: 0.22; stroke-width: 0.7"/>
     </g>
     <g id="line2d_34">
      <g>
       <use xlink:href="#m536bc50e9a" x="50.851563" y="244.704915" style="stroke: #000000; stroke-width: 0.9"/>
      </g>
     </g>
     <g id="line2d_35">
      <g>
       <use xlink:href="#m802afdf9ef" x="461.251562" y="244.704915" style="stroke: #000000; stroke-width: 0.9"/>
      </g>
     </g>
     <g id="text_12">
      <text style="font-size: 10px; font-family: 'Times New Roman', 'DejaVu Serif', serif; text-anchor: end" x="46.851563" y="248.504134" transform="rotate(-0 46.851563 248.504134)">−300</text>
     </g>
    </g>
    <g id="ytick_3">
     <g id="line2d_36">
      <path d="M 50.851563 211.726538 
L 461.251562 211.726538 
" clip-path="url(#p202f19815d)" style="fill: none; stroke-dasharray: 2.59,1.12; stroke-dashoffset: 0; stroke: #b8b8b8; stroke-opacity: 0.22; stroke-width: 0.7"/>
     </g>
     <g id="line2d_37">
      <g>
       <use xlink:href="#m536bc50e9a" x="50.851563" y="211.726538" style="stroke: #000000; stroke-width: 0.9"/>
      </g>
     </g>
     <g id="line2d_38">
      <g>
       <use xlink:href="#m802afdf9ef" x="461.251562" y="211.726538" style="stroke: #000000; stroke-width: 0.9"/>
      </g>
     </g>
     <g id="text_13">
      <text style="font-size: 10px; font-family: 'Times New Roman', 'DejaVu Serif', serif; text-anchor: end" x="46.851563" y="215.525757" transform="rotate(-0 46.851563 215.525757)">−200</text>
     </g>
    </g>
    <g id="ytick_4">
     <g id="line2d_39">
      <path d="M 50.851563 178.748161 
L 461.251562 178.748161 
" clip-path="url(#p202f19815d)" style="fill: none; stroke-dasharray: 2.59,1.12; stroke-dashoffset: 0; stroke: #b8b8b8; stroke-opacity: 0.22; stroke-width: 0.7"/>
     </g>
     <g id="line2d_40">
      <g>
       <use xlink:href="#m536bc50e9a" x="50.851563" y="178.748161" style="stroke: #000000; stroke-width: 0.9"/>
      </g>
     </g>
     <g id="line2d_41">
      <g>
       <use xlink:href="#m802afdf9ef" x="461.251562" y="178.748161" style="stroke: #000000; stroke-width: 0.9"/>
      </g>
     </g>
     <g id="text_14">
      <text style="font-size: 10px; font-family: 'Times New Roman', 'DejaVu Serif', serif; text-anchor: end" x="46.851563" y="182.54738" transform="rotate(-0 46.851563 182.54738)">−100</text>
     </g>
    </g>
    <g id="ytick_5">
     <g id="line2d_42">
      <path d="M 50.851563 145.769784 
L 461.251562 145.769784 
" clip-path="url(#p202f19815d)" style="fill: none; stroke-dasharray: 2.59,1.12; stroke-dashoffset: 0; stroke: #b8b8b8; stroke-opacity: 0.22; stroke-width: 0.7"/>
     </g>
     <g id="line2d_43">
      <g>
       <use xlink:href="#m536bc50e9a" x="50.851563" y="145.769784" style="stroke: #000000; stroke-width: 0.9"/>
      </g>
     </g>
     <g id="line2d_44">
      <g>
       <use xlink:href="#m802afdf9ef" x="461.251562" y="145.769784" style="stroke: #000000; stroke-width: 0.9"/>
      </g>
     </g>
     <g id="text_15">
      <text style="font-size: 10px; font-family: 'Times New Roman', 'DejaVu Serif', serif; text-anchor: end" x="46.851563" y="149.569003" transform="rotate(-0 46.851563 149.569003)">0</text>
     </g>
    </g>
    <g id="ytick_6">
     <g id="line2d_45">
      <path d="M 50.851563 112.791407 
L 461.251562 112.791407 
" clip-path="url(#p202f19815d)" style="fill: none; stroke-dasharray: 2.59,1.12; stroke-dashoffset: 0; stroke: #b8b8b8; stroke-opacity: 0.22; stroke-width: 0.7"/>
     </g>
     <g id="line2d_46">
      <g>
       <use xlink:href="#m536bc50e9a" x="50.851563" y="112.791407" style="stroke: #000000; stroke-width: 0.9"/>
      </g>
     </g>
     <g id="line2d_47">
      <g>
       <use xlink:href="#m802afdf9ef" x="461.251562" y="112.791407" style="stroke: #000000; stroke-width: 0.9"/>
      </g>
     </g>
     <g id="text_16">
      <text style="font-size: 10px; font-family: 'Times New Roman', 'DejaVu Serif', serif; text-anchor: end" x="46.851563" y="116.590625" transform="rotate(-0 46.851563 116.590625)">100</text>
     </g>
    </g>
    <g id="ytick_7">
     <g id="line2d_48">
      <path d="M 50.851563 79.81303 
L 461.251562 79.81303 
" clip-path="url(#p202f19815d)" style="fill: none; stroke-dasharray: 2.59,1.12; stroke-dashoffset: 0; stroke: #b8b8b8; stroke-opacity: 0.22; stroke-width: 0.7"/>
     </g>
     <g id="line2d_49">
      <g>
       <use xlink:href="#m536bc50e9a" x="50.851563" y="79.81303" style="stroke: #000000; stroke-width: 0.9"/>
      </g>
     </g>
     <g id="line2d_50">
      <g>
       <use xlink:href="#m802afdf9ef" x="461.251562" y="79.81303" style="stroke: #000000; stroke-width: 0.9"/>
      </g>
     </g>
     <g id="text_17">
      <text style="font-size: 10px; font-family: 'Times New Roman', 'DejaVu Serif', serif; text-anchor: end" x="46.851563" y="83.612248" transform="rotate(-0 46.851563 83.612248)">200</text>
     </g>
    </g>
    <g id="ytick_8">
     <g id="line2d_51">
      <path d="M 50.851563 46.834652 
L 461.251562 46.834652 
" clip-path="url(#p202f19815d)" style="fill: none; stroke-dasharray: 2.59,1.12; stroke-dashoffset: 0; stroke: #b8b8b8; stroke-opacity: 0.22; stroke-width: 0.7"/>
     </g>
     <g id="line2d_52">
      <g>
       <use xlink:href="#m536bc50e9a" x="50.851563" y="46.834652" style="stroke: #000000; stroke-width: 0.9"/>
      </g>
     </g>
     <g id="line2d_53">
      <g>
       <use xlink:href="#m802afdf9ef" x="461.251562" y="46.834652" style="stroke: #000000; stroke-width: 0.9"/>
      </g>
     </g>
     <g id="text_18">
      <text style="font-size: 10px; font-family: 'Times New Roman', 'DejaVu Serif', serif; text-anchor: end" x="46.851563" y="50.633871" transform="rotate(-0 46.851563 50.633871)">300</text>
     </g>
    </g>
    <g id="ytick_9">
     <g id="line2d_54">
      <path d="M 50.851563 13.856275 
L 461.251562 13.856275 
" clip-path="url(#p202f19815d)" style="fill: none; stroke-dasharray: 2.59,1.12; stroke-dashoffset: 0; stroke: #b8b8b8; stroke-opacity: 0.22; stroke-width: 0.7"/>
     </g>
     <g id="line2d_55">
      <g>
       <use xlink:href="#m536bc50e9a" x="50.851563" y="13.856275" style="stroke: #000000; stroke-width: 0.9"/>
      </g>
     </g>
     <g id="line2d_56">
      <g>
       <use xlink:href="#m802afdf9ef" x="461.251562" y="13.856275" style="stroke: #000000; stroke-width: 0.9"/>
      </g>
     </g>
     <g id="text_19">
      <text style="font-size: 10px; font-family: 'Times New Roman', 'DejaVu Serif', serif; text-anchor: end" x="46.851563" y="17.655494" transform="rotate(-0 46.851563 17.655494)">400</text>
     </g>
    </g>
    <g id="text_20">
     <text style="font-size: 12px; font-family: 'Times New Roman', 'DejaVu Serif', serif; text-anchor: middle" x="12.718125" y="145.44" transform="rotate(-90 12.718125 145.44)">Story shear (kN)</text>
    </g>
   </g>
   <g id="line2d_57">
    <path d="M 258.383381 121.959395 
L 260.715199 110.153136 
L 263.047017 102.56811 
L 265.378835 96.302218 
L 267.710653 90.36611 
L 270.042472 84.100219 
L 272.37429 78.164111 
L 274.706108 74.206705 
L 279.369744 61.674922 
L 277.037926 69.919516 
L 272.37429 85.419354 
L 258.383381 132.941195 
L 256.051562 145.794287 
L 253.719744 164.006826 
L 251.387926 175.71415 
L 249.056108 184.024701 
L 246.72429 191.609728 
L 244.392472 197.545836 
L 242.060653 203.811728 
L 237.397017 216.673295 
L 235.065199 222.939186 
L 232.733381 228.54551 
L 242.060653 197.87562 
L 246.72429 182.375782 
L 251.387926 166.711053 
L 253.719744 158.268589 
L 256.051562 145.74726 
L 258.383381 132.149714 
L 260.715199 122.553006 
L 263.047017 115.000958 
L 272.37429 86.078921 
L 279.369744 64.642976 
L 281.701563 58.706868 
L 284.033381 53.100544 
L 286.365199 47.164436 
L 288.697017 41.887896 
L 291.028835 38.590058 
L 293.360653 34.962437 
L 295.692472 31.005031 
L 298.02429 28.696545 
L 300.356108 24.409356 
L 302.687926 20.781734 
L 300.356108 25.728491 
L 298.02429 31.664599 
L 293.360653 44.196382 
L 288.697017 57.057949 
L 286.365199 63.323841 
L 284.033381 69.259949 
L 281.701563 75.525841 
L 272.37429 99.270272 
L 270.042472 105.536164 
L 267.710653 112.131839 
L 265.378835 117.60625 
L 263.047017 123.377466 
L 260.715199 129.874206 
L 258.383381 138.811346 
L 256.051562 150.155908 
L 253.719744 162.588756 
L 251.387926 170.074848 
L 249.056108 177.033285 
L 244.392472 191.609728 
L 237.397017 211.396754 
L 232.733381 222.609402 
L 228.069744 232.502916 
L 225.737926 237.779456 
L 223.406108 241.407077 
L 221.07429 246.02405 
L 218.742472 249.981455 
L 216.410653 253.279293 
L 214.078835 257.566482 
L 211.747017 261.523887 
L 209.415199 264.491941 
L 214.078835 253.279293 
L 218.742472 241.407077 
L 221.07429 235.800753 
L 225.737926 223.928538 
L 228.069744 218.322213 
L 230.401562 212.386106 
L 232.733381 206.779781 
L 235.065199 200.843674 
L 239.728835 189.631025 
L 242.060653 183.694917 
L 246.72429 172.383334 
L 251.387926 160.346226 
L 256.051562 144.0681 
L 258.383381 135.117768 
L 260.715199 126.774239 
L 265.378835 114.539261 
L 267.710653 109.163785 
L 270.042472 103.227677 
L 272.37429 97.621353 
L 277.037926 85.749137 
L 281.701563 74.536489 
L 284.033381 68.600381 
L 286.365199 62.994057 
L 288.697017 58.047301 
L 298.02429 35.622004 
L 300.356108 30.345464 
L 302.687926 26.717842 
L 305.019744 24.73914 
L 307.351562 22.430653 
L 309.683381 19.792383 
L 312.015199 18.803032 
L 314.347017 17.483897 
L 316.678835 16.494545 
L 319.010653 18.473248 
L 321.342472 18.143464 
L 323.67429 18.143464 
L 326.006108 18.803032 
L 328.337926 17.813681 
L 330.669744 18.803032 
L 333.001562 18.473248 
L 335.333381 17.813681 
L 337.665199 18.143464 
L 339.997017 17.483897 
L 342.328835 17.813681 
L 344.660653 17.483897 
L 346.992472 19.462599 
L 349.32429 19.132816 
L 337.665199 42.21768 
L 335.333381 46.504869 
L 333.001562 51.451625 
L 330.669744 55.738814 
L 328.337926 60.355787 
L 326.006108 64.642976 
L 323.67429 69.259949 
L 321.342472 73.547138 
L 316.678835 82.781083 
L 314.347017 87.068272 
L 309.683381 96.302218 
L 307.351562 100.589407 
L 302.687926 108.504218 
L 298.02429 117.111574 
L 295.692472 121.365785 
L 293.360653 126.015736 
L 291.028835 131.028449 
L 284.033381 146.703072 
L 281.701563 151.079302 
L 279.369744 154.904794 
L 277.037926 158.334545 
L 274.706108 160.87388 
L 272.37429 163.973848 
L 270.042472 167.304664 
L 267.710653 170.206761 
L 265.378835 174.164166 
L 263.047017 178.385399 
L 260.715199 182.375782 
L 258.383381 186.992755 
L 256.051562 190.620377 
L 251.387926 199.194755 
L 249.056108 203.811728 
L 242.060653 213.705241 
L 239.728835 216.673295 
L 237.397017 219.311565 
L 235.065199 222.279619 
L 225.737926 232.832699 
L 218.742472 241.736861 
L 216.410653 245.034699 
L 214.078835 248.992104 
L 211.747017 252.289942 
L 209.415199 255.257996 
L 204.751562 259.874969 
L 202.419744 261.853671 
L 200.087926 264.162158 
L 197.756108 265.481293 
L 195.42429 267.130212 
L 193.092472 266.800428 
L 190.760653 267.789779 
L 186.097017 269.108914 
L 183.765199 270.098266 
L 181.433381 270.428049 
L 176.769744 272.406752 
L 174.437926 270.757833 
L 172.106108 271.747184 
L 167.442472 272.406752 
L 165.110653 272.076968 
L 162.778835 272.406752 
L 174.437926 249.321888 
L 176.769744 245.034699 
L 179.101562 240.417726 
L 181.433381 236.130537 
L 183.765199 231.513564 
L 200.087926 201.503241 
L 202.419744 197.545836 
L 204.751562 193.258647 
L 209.415199 185.343836 
L 214.078835 177.000307 
L 216.410653 173.042902 
L 221.07429 164.402567 
L 223.406108 160.906859 
L 225.737926 156.883497 
L 230.401562 149.199535 
L 232.733381 145.733508 
L 235.065199 141.614508 
L 237.397017 137.986887 
L 239.728835 137.92093 
L 242.060653 136.469881 
L 244.392472 135.513508 
L 246.72429 133.765654 
L 249.056108 129.082725 
L 251.387926 125.488082 
L 253.719744 126.246585 
L 256.051562 121.959395 
L 258.383381 118.82645 
L 260.715199 115.396698 
L 265.378835 109.493569 
L 267.710653 107.84465 
L 270.042472 104.546812 
L 272.37429 103.227677 
L 274.706108 98.940488 
L 277.037926 95.312867 
L 279.369744 91.025678 
L 281.701563 87.398056 
L 284.033381 83.440651 
L 286.365199 79.81303 
L 288.697017 77.174759 
L 293.360653 73.217354 
L 295.692472 70.908868 
L 300.356108 67.61103 
L 302.687926 65.302544 
L 305.019744 62.33449 
L 307.351562 59.696219 
L 314.347017 50.792058 
L 321.342472 42.877247 
L 323.67429 40.568761 
L 326.006108 38.590058 
L 328.337926 36.281572 
L 330.669744 34.302869 
L 337.665199 30.345464 
L 339.997017 29.356113 
L 342.328835 29.026329 
L 344.660653 29.356113 
L 346.992472 30.01568 
L 349.32429 34.962437 
L 351.656108 34.962437 
L 358.651563 33.973085 
L 365.647017 31.994383 
L 367.978835 31.664599 
L 370.310653 31.005031 
L 372.642472 31.005031 
L 374.97429 31.664599 
L 377.306108 31.994383 
L 379.637926 31.664599 
L 381.969744 31.664599 
L 384.301562 31.334815 
L 386.633381 31.664599 
L 388.965199 34.962437 
L 391.297017 35.622004 
L 393.628835 36.611355 
L 395.960653 36.611355 
L 393.628835 40.238977 
L 391.297017 43.536815 
L 388.965199 47.164436 
L 365.647017 80.142813 
L 363.315199 83.110867 
L 358.651563 89.706543 
L 356.319744 93.334164 
L 353.987926 96.302218 
L 351.656108 98.940488 
L 339.997017 113.714801 
L 337.665199 116.287115 
L 335.333381 119.189212 
L 333.001562 122.421093 
L 326.006108 132.908217 
L 323.67429 136.008184 
L 319.010653 142.775347 
L 314.347017 148.958793 
L 312.015199 151.771848 
L 309.683381 154.37714 
L 307.351562 156.718605 
L 305.019744 159.290918 
L 300.356108 163.611086 
L 298.02429 165.062134 
L 295.692472 165.55681 
L 293.360653 166.711053 
L 291.028835 167.205729 
L 286.365199 169.745064 
L 284.033381 170.107826 
L 281.701563 170.272718 
L 279.369744 169.514215 
L 277.037926 172.05355 
L 274.706108 175.054583 
L 272.37429 177.363069 
L 270.042472 179.407728 
L 267.710653 182.375782 
L 265.378835 185.014053 
L 263.047017 187.322539 
L 260.715199 190.620377 
L 256.051562 195.237349 
L 253.719744 199.194755 
L 251.387926 198.864971 
L 249.056108 201.503241 
L 246.72429 203.811728 
L 244.392472 205.79043 
L 242.060653 207.439349 
L 239.728835 208.758484 
L 237.397017 209.747835 
L 230.401562 213.705241 
L 218.742472 221.949835 
L 216.410653 223.26897 
L 214.078835 225.247673 
L 211.747017 226.896591 
L 207.083381 231.513564 
L 202.419744 235.47097 
L 200.087926 238.10924 
L 197.756108 240.417726 
L 195.42429 243.38578 
L 193.092472 245.364483 
L 190.760653 246.02405 
L 188.428835 248.332537 
L 186.097017 250.311239 
L 183.765199 249.651672 
L 181.433381 250.311239 
L 179.101562 251.960158 
L 176.769744 253.279293 
L 174.437926 252.619726 
L 172.106108 255.257996 
L 169.77429 251.300591 
L 167.442472 253.279293 
L 165.110653 255.58778 
L 162.778835 258.22605 
L 160.447017 259.545185 
L 158.115199 261.523887 
L 155.783381 262.513239 
L 153.451562 263.172806 
L 151.119744 263.50259 
L 148.787926 264.491941 
L 146.456108 265.151509 
L 141.792472 263.832374 
L 139.460653 264.821725 
L 134.797017 266.14086 
L 125.469744 267.459995 
L 123.137926 265.811076 
L 118.47429 266.470644 
L 116.142472 265.151509 
L 118.47429 261.523887 
L 127.801562 248.332537 
L 130.133381 245.364483 
L 132.465199 242.066645 
L 134.797017 239.428375 
L 151.119744 218.651997 
L 155.783381 213.375457 
L 158.115199 210.407403 
L 167.442472 199.854322 
L 169.77429 197.545836 
L 176.769744 189.631025 
L 179.101562 187.322539 
L 181.433381 184.684269 
L 186.097017 180.067296 
L 188.428835 177.527961 
L 193.092472 172.746096 
L 195.42429 170.569523 
L 197.756108 168.788691 
L 202.419744 165.820637 
L 207.083381 161.401535 
L 209.415199 159.191983 
L 214.078835 155.2016 
L 216.410653 153.354811 
L 218.742472 151.310151 
L 221.07429 149.49634 
L 223.406108 148.896134 
L 228.069744 144.978303 
L 230.401562 143.283214 
L 232.733381 141.053876 
L 235.065199 139.833676 
L 237.397017 138.184757 
L 239.728835 136.107119 
L 242.060653 134.853941 
L 244.392472 133.139065 
L 246.72429 131.81993 
L 249.056108 135.843292 
L 251.387926 134.293309 
L 253.719744 132.347584 
L 256.051562 129.874206 
L 258.383381 128.654006 
L 260.715199 128.291244 
L 263.047017 127.730611 
L 265.378835 130.434838 
L 267.710653 126.180628 
L 270.042472 123.443422 
L 274.706108 119.650909 
L 279.369744 115.231807 
L 281.701563 113.088212 
L 284.033381 111.472272 
L 286.365199 110.153136 
L 288.697017 108.504218 
L 291.028835 107.185083 
L 293.360653 103.887245 
L 298.02429 99.270272 
L 300.356108 96.302218 
L 302.687926 93.993732 
L 305.019744 93.334164 
L 307.351562 90.036326 
L 309.683381 87.398056 
L 314.347017 82.781083 
L 323.67429 72.228003 
L 328.337926 67.61103 
L 333.001562 62.33449 
L 335.333381 59.366436 
L 337.665199 57.387733 
L 339.997017 55.738814 
L 342.328835 53.760112 
L 344.660653 53.430328 
L 346.992472 52.440977 
L 349.32429 51.121841 
L 351.656108 50.462274 
L 353.987926 49.472923 
L 356.319744 49.143139 
L 358.651563 49.472923 
L 360.983381 48.483571 
L 363.315199 48.153787 
L 365.647017 47.164436 
L 370.310653 46.504869 
L 372.642472 45.845301 
L 377.306108 45.185734 
L 379.637926 44.526166 
L 388.965199 43.207031 
L 391.297017 43.207031 
L 393.628835 46.834652 
L 395.960653 45.185734 
L 398.292472 45.845301 
L 402.956108 43.207031 
L 405.287926 42.547463 
L 407.619744 41.558112 
L 412.283381 40.898545 
L 414.615199 41.228328 
L 416.947017 40.238977 
L 423.942472 39.249626 
L 426.27429 41.887896 
L 430.937926 39.909193 
L 435.601562 38.590058 
L 437.933381 38.590058 
L 440.265199 38.260274 
L 442.597017 38.260274 
L 437.933381 43.536815 
L 430.937926 50.462274 
L 428.606108 52.440977 
L 426.27429 54.749463 
L 423.942472 56.728166 
L 421.610653 59.036652 
L 419.278835 61.015355 
L 416.947017 63.323841 
L 388.965199 87.068272 
L 386.633381 89.376759 
L 381.969744 93.334164 
L 377.306108 96.632002 
L 374.97429 98.610704 
L 367.978835 103.557461 
L 365.647017 105.536164 
L 363.315199 107.185083 
L 358.651563 111.142488 
L 351.656108 116.122223 
L 346.992472 119.683887 
L 344.660653 121.728547 
L 342.328835 123.509379 
L 339.997017 125.554039 
L 335.333381 129.049747 
L 316.678835 143.434915 
L 314.347017 144.730965 
L 312.015199 145.248725 
L 309.683381 146.841581 
L 307.351562 148.29263 
L 305.019744 150.023994 
L 291.028835 159.25794 
L 288.697017 160.016443 
L 286.365199 160.906859 
L 281.701563 160.774945 
L 279.369744 163.874913 
L 277.037926 164.501502 
L 274.706108 161.401535 
L 272.37429 162.984497 
L 270.042472 166.051486 
L 267.710653 167.568491 
L 265.378835 168.294015 
L 260.715199 170.140804 
L 258.383381 171.163134 
L 256.051562 170.800372 
L 253.719744 169.843999 
L 251.387926 172.317377 
L 246.72429 174.988626 
L 244.392472 173.009923 
L 242.060653 172.845031 
L 239.728835 174.263102 
L 237.397017 175.153518 
L 235.065199 176.967329 
L 232.733381 178.055615 
L 230.401562 179.407728 
L 228.069744 180.39708 
L 223.406108 183.694917 
L 221.07429 185.014053 
L 214.078835 189.960809 
L 211.747017 191.939512 
L 209.415199 193.588431 
L 204.751562 197.545836 
L 202.419744 199.194755 
L 200.087926 201.173457 
L 197.756108 202.822376 
L 195.42429 204.801079 
L 190.760653 208.098917 
L 186.097017 212.056322 
L 183.765199 213.375457 
L 181.433381 215.024376 
L 179.101562 216.343511 
L 176.769744 217.332862 
L 174.437926 219.971132 
L 165.110653 225.247673 
L 162.778835 224.917889 
L 160.447017 227.556159 
L 158.115199 229.205078 
L 155.783381 229.864645 
L 153.451562 231.843348 
L 151.119744 232.832699 
L 146.456108 235.47097 
L 144.12429 237.119888 
L 141.792472 237.779456 
L 139.460653 238.768807 
L 137.128835 240.74751 
L 134.797017 242.396429 
L 130.133381 245.034699 
L 123.137926 248.002753 
L 120.806108 248.332537 
L 118.47429 248.992104 
L 111.478835 249.981455 
L 109.147017 250.641023 
L 102.151562 250.641023 
L 99.819744 251.300591 
L 97.487926 251.630374 
L 95.156108 252.289942 
L 92.82429 251.630374 
L 90.492472 252.289942 
L 88.160653 252.619726 
L 85.828835 252.619726 
L 83.497017 252.949509 
L 81.165199 253.609077 
L 78.833381 253.938861 
L 76.501562 254.598428 
L 74.169744 254.268645 
L 71.837926 255.257996 
L 69.506108 255.917563 
L 71.837926 253.279293 
L 81.165199 244.045348 
L 92.82429 234.151834 
L 95.156108 231.843348 
L 111.478835 217.99243 
L 116.142472 214.694592 
L 118.47429 212.715889 
L 125.469744 207.769133 
L 127.801562 205.79043 
L 139.460653 197.545836 
L 141.792472 195.567133 
L 160.447017 182.375782 
L 162.778835 181.056647 
L 165.110653 179.407728 
L 172.106108 175.054583 
L 186.097017 166.051486 
L 188.428835 164.864264 
L 195.42429 160.346226 
L 197.756108 159.159005 
L 207.083381 153.684594 
L 209.415199 152.035675 
L 214.078835 149.463362 
L 223.406108 144.005441 
L 228.069744 141.152811 
L 230.401562 139.866654 
L 232.733381 137.756038 
L 235.065199 136.107119 
L 237.397017 135.876271 
L 239.728835 134.425222 
L 242.060653 137.624125 
L 244.392472 139.174108 
L 246.72429 134.886919 
L 249.056108 139.371979 
L 251.387926 134.853941 
L 253.719744 139.240065 
L 256.051562 135.183725 
L 256.051562 135.183725 
" clip-path="url(#p202f19815d)" style="fill: none; stroke: #0072b2; stroke-width: 1.7; stroke-linecap: square"/>
   </g>
   <g id="line2d_58">
    <path d="M 258.383381 121.959395 
L 260.715199 109.823353 
L 263.047017 101.908542 
L 267.710653 90.036326 
L 270.042472 83.440651 
L 272.37429 77.504543 
L 274.706108 73.217354 
L 277.037926 66.621679 
L 279.369744 60.685571 
L 263.047017 116.353071 
L 258.383381 132.776303 
L 256.051562 145.788581 
L 253.719744 163.874913 
L 251.387926 175.483302 
L 249.056108 184.354485 
L 246.72429 191.939512 
L 237.397017 217.99243 
L 235.065199 223.928538 
L 232.733381 229.534862 
L 237.397017 214.035024 
L 246.72429 182.705566 
L 251.387926 166.941902 
L 253.719744 158.433481 
L 256.051562 145.756329 
L 258.383381 131.885887 
L 260.715199 122.915768 
L 263.047017 114.770109 
L 265.378835 107.514866 
L 267.710653 99.600056 
L 277.037926 70.579084 
L 279.369744 63.983409 
L 286.365199 46.175085 
L 288.697017 40.568761 
L 293.360653 33.313518 
L 295.692472 31.005031 
L 298.02429 27.047626 
L 300.356108 22.760437 
L 302.687926 19.792383 
L 300.356108 25.728491 
L 298.02429 31.994383 
L 293.360653 44.85595 
L 284.033381 69.919516 
L 279.369744 81.791732 
L 277.037926 88.057624 
L 272.37429 99.92984 
L 267.710653 112.461623 
L 263.047017 123.90512 
L 260.715199 130.764622 
L 258.383381 139.932611 
L 256.051562 150.683562 
L 253.719744 163.281302 
L 251.387926 171.822702 
L 244.392472 193.258647 
L 242.060653 199.524538 
L 239.728835 205.460646 
L 237.397017 211.726538 
L 235.065199 217.662646 
L 232.733381 223.26897 
L 230.401562 227.885943 
L 228.069744 233.162483 
L 225.737926 237.119888 
L 223.406108 241.407077 
L 221.07429 244.704915 
L 218.742472 249.651672 
L 216.410653 254.268645 
L 214.078835 258.555834 
L 211.747017 262.183455 
L 209.415199 265.481293 
L 211.747017 260.204752 
L 216.410653 248.992104 
L 225.737926 225.247673 
L 228.069744 219.641349 
L 232.733381 207.769133 
L 235.065199 202.162809 
L 237.397017 196.226701 
L 239.728835 190.620377 
L 242.060653 184.684269 
L 249.056108 167.700405 
L 251.387926 161.434513 
L 253.719744 154.673946 
L 256.051562 145.813315 
L 260.715199 126.576368 
L 263.047017 119.584952 
L 270.042472 100.589407 
L 272.37429 94.653299 
L 274.706108 88.387408 
L 281.701563 70.579084 
L 284.033381 64.97276 
L 286.365199 60.355787 
L 288.697017 56.398382 
L 291.028835 51.781409 
L 298.02429 35.951788 
L 300.356108 31.005031 
L 302.687926 26.717842 
L 305.019744 23.749788 
L 307.351562 21.111518 
L 309.683381 19.792383 
L 312.015199 18.803032 
L 314.347017 18.473248 
L 319.010653 19.132816 
L 323.67429 18.473248 
L 326.006108 17.813681 
L 328.337926 18.473248 
L 330.669744 17.813681 
L 333.001562 17.813681 
L 335.333381 17.154113 
L 337.665199 16.824329 
L 339.997017 16.824329 
L 342.328835 17.483897 
L 344.660653 16.494545 
L 346.992472 16.494545 
L 349.32429 18.143464 
L 346.992472 22.760437 
L 344.660653 27.707194 
L 337.665199 41.558112 
L 335.333381 46.504869 
L 330.669744 55.738814 
L 328.337926 60.026003 
L 326.006108 64.97276 
L 323.67429 69.589733 
L 321.342472 73.876922 
L 319.010653 78.823678 
L 316.678835 83.110867 
L 314.347017 88.057624 
L 309.683381 97.291569 
L 302.687926 110.153136 
L 298.02429 119.22219 
L 295.692472 123.707249 
L 293.360653 128.686984 
L 291.028835 133.402892 
L 284.033381 148.605924 
L 281.701563 153.255875 
L 274.706108 161.236643 
L 272.37429 164.666394 
L 270.042472 168.689756 
L 267.710653 171.987594 
L 265.378835 175.879042 
L 263.047017 180.067296 
L 260.715199 185.014053 
L 258.383381 188.641674 
L 256.051562 192.928863 
L 253.719744 197.545836 
L 251.387926 201.833025 
L 249.056108 204.801079 
L 246.72429 209.088268 
L 244.392472 213.045673 
L 237.397017 220.960484 
L 235.065199 223.928538 
L 230.401562 228.54551 
L 228.069744 231.183781 
L 211.747017 251.960158 
L 209.415199 254.268645 
L 207.083381 256.906915 
L 202.419744 261.523887 
L 200.087926 263.172806 
L 197.756108 265.151509 
L 195.42429 267.459995 
L 193.092472 267.459995 
L 190.760653 268.449347 
L 188.428835 269.768482 
L 186.097017 270.757833 
L 183.765199 272.076968 
L 181.433381 271.747184 
L 179.101562 272.076968 
L 176.769744 272.736536 
L 174.437926 271.747184 
L 172.106108 272.736536 
L 167.442472 273.396103 
L 165.110653 274.055671 
L 162.778835 274.385455 
L 165.110653 269.108914 
L 167.442472 264.162158 
L 169.77429 259.545185 
L 172.106108 254.598428 
L 174.437926 250.311239 
L 176.769744 245.364483 
L 179.101562 240.74751 
L 181.433381 236.460321 
L 186.097017 227.226375 
L 188.428835 222.939186 
L 190.760653 218.322213 
L 204.751562 192.599079 
L 209.415199 184.684269 
L 211.747017 180.39708 
L 214.078835 176.373718 
L 223.406108 158.829221 
L 228.069744 151.079302 
L 230.401562 147.276896 
L 232.733381 143.068855 
L 235.065199 138.481562 
L 237.397017 136.667752 
L 239.728835 135.777336 
L 242.060653 134.06246 
L 244.392472 129.742292 
L 249.056108 124.333839 
L 251.387926 123.971076 
L 253.719744 120.937066 
L 256.051562 118.595601 
L 258.383381 118.364752 
L 260.715199 113.846715 
L 263.047017 115.36372 
L 265.378835 110.48292 
L 270.042472 103.227677 
L 272.37429 100.259623 
L 274.706108 95.972434 
L 277.037926 92.674597 
L 281.701563 84.759786 
L 284.033381 81.132165 
L 286.365199 78.164111 
L 288.697017 76.185408 
L 291.028835 74.536489 
L 293.360653 72.557787 
L 302.687926 63.323841 
L 305.019744 61.345138 
L 309.683381 56.728166 
L 312.015199 54.089895 
L 314.347017 51.121841 
L 316.678835 48.483571 
L 321.342472 42.547463 
L 323.67429 40.238977 
L 326.006108 38.260274 
L 333.001562 33.313518 
L 337.665199 30.675248 
L 339.997017 29.685896 
L 342.328835 28.366761 
L 346.992472 26.388059 
L 349.32429 29.026329 
L 353.987926 30.345464 
L 356.319744 32.324166 
L 358.651563 31.994383 
L 363.315199 30.675248 
L 365.647017 30.345464 
L 367.978835 31.005031 
L 374.97429 29.026329 
L 379.637926 28.366761 
L 384.301562 29.026329 
L 386.633381 29.026329 
L 388.965199 34.302869 
L 391.297017 32.65395 
L 393.628835 32.324166 
L 395.960653 32.65395 
L 391.297017 39.909193 
L 388.965199 43.207031 
L 386.633381 46.834652 
L 370.310653 69.919516 
L 367.978835 72.88757 
L 360.983381 82.781083 
L 358.651563 85.749137 
L 353.987926 92.344813 
L 328.337926 125.158298 
L 321.342472 134.820963 
L 319.010653 137.92093 
L 314.347017 142.933643 
L 312.015199 145.809358 
L 309.683381 148.243162 
L 302.687926 156.059037 
L 300.356108 158.301567 
L 298.02429 160.379205 
L 293.360653 162.654713 
L 291.028835 164.204697 
L 288.697017 165.128091 
L 286.365199 166.941902 
L 284.033381 169.283367 
L 281.701563 171.328026 
L 279.369744 173.207794 
L 277.037926 173.702469 
L 274.706108 174.658842 
L 270.042472 179.407728 
L 267.710653 181.716215 
L 265.378835 183.365134 
L 260.715199 187.322539 
L 251.387926 197.87562 
L 249.056108 200.843674 
L 246.72429 202.822376 
L 244.392472 204.471295 
L 242.060653 206.779781 
L 239.728835 208.758484 
L 237.397017 210.407403 
L 235.065199 211.726538 
L 232.733381 212.715889 
L 228.069744 215.354159 
L 223.406108 219.311565 
L 221.07429 220.960484 
L 218.742472 222.939186 
L 216.410653 225.247673 
L 214.078835 227.226375 
L 209.415199 231.843348 
L 207.083381 233.822051 
L 197.756108 244.375131 
L 195.42429 246.683618 
L 193.092472 248.66232 
L 190.760653 250.311239 
L 188.428835 251.300591 
L 186.097017 251.960158 
L 181.433381 255.257996 
L 179.101562 252.949509 
L 176.769744 253.938861 
L 172.106108 256.577131 
L 169.77429 257.566482 
L 167.442472 255.917563 
L 165.110653 256.247347 
L 162.778835 257.896266 
L 160.447017 257.236698 
L 158.115199 259.545185 
L 155.783381 261.194104 
L 151.119744 261.853671 
L 146.456108 263.172806 
L 144.12429 258.22605 
L 141.792472 259.215401 
L 139.460653 259.545185 
L 130.133381 259.545185 
L 116.142472 261.523887 
L 118.47429 257.896266 
L 134.797017 237.119888 
L 137.128835 234.481618 
L 139.460653 231.513564 
L 141.792472 228.875294 
L 144.12429 225.90724 
L 146.456108 223.26897 
L 148.787926 220.300916 
L 153.451562 215.024376 
L 155.783381 212.056322 
L 162.778835 204.141511 
L 165.110653 201.173457 
L 174.437926 190.620377 
L 176.769744 188.31189 
L 179.101562 185.67362 
L 181.433381 183.365134 
L 183.765199 180.726864 
L 188.428835 176.043934 
L 193.092472 171.591853 
L 195.42429 169.21741 
L 197.756108 166.513183 
L 202.419744 162.291951 
L 204.751562 160.115378 
L 209.415199 156.092016 
L 214.078835 152.563329 
L 216.410653 151.178238 
L 221.07429 147.873804 
L 223.406108 146.03493 
L 228.069744 142.109184 
L 230.401562 140.130481 
L 235.065199 137.756038 
L 239.728835 133.732676 
L 244.392472 131.226319 
L 246.72429 130.138033 
L 249.056108 130.269947 
L 251.387926 130.236968 
L 253.719744 125.751909 
L 256.051562 130.533774 
L 258.383381 125.389147 
L 260.715199 122.025352 
L 263.047017 123.839163 
L 265.378835 121.629612 
L 267.710653 125.751909 
L 270.042472 123.377466 
L 272.37429 121.497698 
L 274.706108 120.508347 
L 277.037926 118.430709 
L 284.033381 110.812704 
L 286.365199 109.163785 
L 288.697017 107.185083 
L 293.360653 103.887245 
L 295.692472 101.578758 
L 298.02429 99.600056 
L 300.356108 97.291569 
L 302.687926 95.312867 
L 305.019744 93.00438 
L 307.351562 91.025678 
L 309.683381 88.387408 
L 314.347017 84.430002 
L 316.678835 83.110867 
L 321.342472 77.834327 
L 328.337926 70.908868 
L 330.669744 68.270598 
L 333.001562 66.951462 
L 335.333381 64.97276 
L 337.665199 63.653625 
L 339.997017 62.994057 
L 344.660653 60.355787 
L 349.32429 58.377084 
L 351.656108 57.057949 
L 353.987926 57.387733 
L 358.651563 54.089895 
L 360.983381 53.100544 
L 365.647017 50.462274 
L 370.310653 48.483571 
L 374.97429 47.824004 
L 377.306108 48.813355 
L 381.969744 46.834652 
L 384.301562 46.175085 
L 388.965199 45.515517 
L 393.628835 44.196382 
L 398.292472 43.536815 
L 400.62429 43.536815 
L 405.287926 42.877247 
L 407.619744 42.21768 
L 414.615199 41.228328 
L 416.947017 40.568761 
L 421.610653 39.909193 
L 423.942472 39.249626 
L 428.606108 38.590058 
L 430.937926 37.930491 
L 440.265199 36.611355 
L 442.597017 36.611355 
L 440.265199 38.919842 
L 437.933381 41.558112 
L 435.601562 43.866598 
L 433.269744 45.845301 
L 430.937926 48.153787 
L 428.606108 50.13249 
L 426.27429 52.440977 
L 421.610653 56.398382 
L 419.278835 58.706868 
L 384.301562 88.387408 
L 381.969744 90.695894 
L 379.637926 92.674597 
L 377.306108 94.323515 
L 374.97429 96.302218 
L 367.978835 101.248975 
L 365.647017 103.227677 
L 360.983381 106.525515 
L 358.651563 108.504218 
L 351.656108 113.450974 
L 349.32429 115.330742 
L 346.992472 117.012639 
L 344.660653 118.925385 
L 335.333381 125.916801 
L 333.001562 127.664655 
L 330.669744 129.643357 
L 328.337926 131.226319 
L 326.006108 133.402892 
L 316.678835 140.130481 
L 314.347017 142.109184 
L 309.683381 144.869474 
L 305.019744 148.041994 
L 300.356108 151.178238 
L 295.692472 154.146292 
L 291.028835 154.838837 
L 288.697017 156.355843 
L 286.365199 157.609021 
L 284.033381 158.169654 
L 281.701563 158.862199 
L 279.369744 160.939837 
L 277.037926 162.028124 
L 274.706108 163.808956 
L 272.37429 164.732351 
L 270.042472 164.699372 
L 267.710653 164.53448 
L 265.378835 165.523832 
L 263.047017 167.106794 
L 260.715199 168.326994 
L 258.383381 168.096145 
L 256.051562 169.646129 
L 253.719744 171.031221 
L 251.387926 170.701437 
L 246.72429 170.63548 
L 244.392472 172.05355 
L 242.060653 172.812053 
L 239.728835 173.372685 
L 237.397017 175.417345 
L 235.065199 176.010956 
L 230.401562 178.550291 
L 228.069744 179.077945 
L 225.737926 179.737512 
L 223.406108 180.726864 
L 221.07429 182.045999 
L 216.410653 185.343836 
L 209.415199 191.279944 
L 207.083381 192.928863 
L 204.751562 195.237349 
L 202.419744 197.216052 
L 200.087926 198.864971 
L 197.756108 200.843674 
L 195.42429 202.492592 
L 193.092472 204.471295 
L 188.428835 207.769133 
L 186.097017 210.077619 
L 179.101562 215.024376 
L 176.769744 217.003078 
L 174.437926 218.651997 
L 172.106108 220.6307 
L 162.778835 225.90724 
L 160.447017 226.896591 
L 153.451562 230.853997 
L 151.119744 232.502916 
L 146.456108 235.141186 
L 144.12429 236.790105 
L 141.792472 238.10924 
L 139.460653 239.758159 
L 132.465199 243.715564 
L 127.801562 245.694266 
L 125.469744 247.013402 
L 120.806108 248.992104 
L 118.47429 249.651672 
L 116.142472 250.641023 
L 113.810653 250.970807 
L 111.478835 251.630374 
L 109.147017 251.960158 
L 106.815199 251.300591 
L 104.483381 252.949509 
L 102.151562 253.609077 
L 99.819744 253.279293 
L 97.487926 253.279293 
L 95.156108 253.938861 
L 90.492472 254.598428 
L 88.160653 254.598428 
L 83.497017 255.257996 
L 81.165199 255.917563 
L 76.501562 256.577131 
L 74.169744 257.236698 
L 71.837926 257.236698 
L 69.506108 257.566482 
L 71.837926 254.928212 
L 76.501562 250.311239 
L 78.833381 248.332537 
L 83.497017 243.715564 
L 92.82429 235.800753 
L 95.156108 233.492267 
L 104.483381 225.577456 
L 106.815199 223.26897 
L 118.47429 213.375457 
L 120.806108 211.726538 
L 123.137926 209.747835 
L 130.133381 204.801079 
L 132.465199 202.822376 
L 134.797017 201.503241 
L 137.128835 199.524538 
L 146.456108 192.928863 
L 148.787926 190.95016 
L 151.119744 189.631025 
L 153.451562 187.652323 
L 155.783381 186.333188 
L 167.442472 178.220507 
L 169.77429 176.637545 
L 172.106108 174.757777 
L 176.769744 171.789723 
L 181.433381 168.755713 
L 186.097017 165.688724 
L 190.760653 162.885561 
L 193.092472 161.203664 
L 197.756108 158.400502 
L 207.083381 152.695243 
L 209.415199 150.71654 
L 211.747017 149.529319 
L 214.078835 148.150823 
L 216.410653 146.455734 
L 218.742472 145.413617 
L 221.07429 145.538935 
L 223.406108 145.39383 
L 228.069744 143.375554 
L 235.065199 140.823027 
L 237.397017 139.306022 
L 239.728835 138.679433 
L 242.060653 138.514541 
L 244.392472 137.492211 
L 246.72429 136.70073 
L 249.056108 134.491179 
L 251.387926 137.756038 
L 253.719744 133.765654 
L 256.051562 136.436903 
L 256.051562 136.436903 
" clip-path="url(#p202f19815d)" style="fill: none; stroke-dasharray: 6.29,2.72; stroke-dashoffset: 0; stroke: #d55e00; stroke-width: 1.7"/>
   </g>
   <g id="patch_3">
    <path d="M 50.851563 287.28 
L 50.851563 3.6 
" style="fill: none; stroke: #222222; stroke-width: 0.9; stroke-linejoin: miter; stroke-linecap: square"/>
   </g>
   <g id="patch_4">
    <path d="M 461.251562 287.28 
L 461.251562 3.6 
" style="fill: none; stroke: #222222; stroke-width: 0.9; stroke-linejoin: miter; stroke-linecap: square"/>
   </g>
   <g id="patch_5">
    <path d="M 50.851562 287.28 
L 461.251562 287.28 
" style="fill: none; stroke: #222222; stroke-width: 0.9; stroke-linejoin: miter; stroke-linecap: square"/>
   </g>
   <g id="patch_6">
    <path d="M 50.851562 3.6 
L 461.251562 3.6 
" style="fill: none; stroke: #222222; stroke-width: 0.9; stroke-linejoin: miter; stroke-linecap: square"/>
   </g>
   <g id="text_21">
    <text style="font-weight: 700; font-size: 11px; font-family: 'Times New Roman', 'DejaVu Serif', serif; text-anchor: start" x="59.059563" y="17.631881" transform="rotate(-0 59.059563 17.631881)">(a)</text>
   </g>
   <g id="legend_1">
    <g id="line2d_59">
     <path d="M 379.873437 257.88 
L 391.873437 257.88 
L 403.873437 257.88 
" style="fill: none; stroke: #0072b2; stroke-width: 1.7; stroke-linecap: square"/>
    </g>
    <g id="text_22">
     <text style="font-size: 10px; font-family: 'Times New Roman', 'DejaVu Serif', serif; text-anchor: start" x="410.873437" y="261.38" transform="rotate(-0 410.873437 261.38)">Original</text>
    </g>
    <g id="line2d_60">
     <path d="M 379.873437 272.700312 
L 391.873437 272.700312 
L 403.873437 272.700312 
" style="fill: none; stroke-dasharray: 6.29,2.72; stroke-dashoffset: 0; stroke: #d55e00; stroke-width: 1.7"/>
    </g>
    <g id="text_23">
     <text style="font-size: 10px; font-family: 'Times New Roman', 'DejaVu Serif', serif; text-anchor: start" x="410.873437" y="276.200312" transform="rotate(-0 410.873437 276.200312)">J12-M</text>
    </g>
   </g>
  </g>
 </g>
 <defs>
  <clipPath id="p202f19815d">
   <rect x="50.851563" y="3.6" width="410.4" height="283.68"/>
  </clipPath>
 </defs>
</svg>
