<?xml version="1.0" encoding="utf-8" standalone="no"?>
<!DOCTYPE svg PUBLIC "-//W3C//DTD SVG 1.1//EN"
  "http://www.w3.org/Graphics/SVG/1.1/DTD/svg11.dtd">
<svg xmlns:xlink="http://www.w3.org/1999/xlink" width="461.457062pt" height="319.116562pt" viewBox="0 0 461.457062 319.116562" xmlns="http://www.w3.org/2000/svg" version="1.1">
 <metadata>
  <rdf:RDF xmlns:dc="http://purl.org/dc/elements/1.1/" xmlns:cc="http://creativecommons.org/ns#" xmlns:rdf="http://www.w3.org/1999/02/22-rdf-syntax-ns#">
   <cc:Work>
    <dc:type rdf:resource="http://purl.org/dc/dcmitype/StillImage"/>
    <dc:date>2026-09-04T16:14:20.127678</dc:date>
    <dc:format>image/svg+xml</dc:format>
    <dc:creator>
     <cc:Agent>
      <dc:title>Matplotlib v3.10.9, https://matplotlib.org/</dc:title>
     </cc:Agent>
    </dc:creator>
   </cc:Work>
  </rdf:RDF>
 </metadata>
 <defs>
  <style type="text/css">*{stroke-linejoin: round; stroke-linecap: butt}</style>
 </defs>
 <g id="figure_1">
  <g id="patch_1">
   <path d="M 0 319.116562 
L 461.457062 319.116562 
L 461.457062 0 
L 0 0 
z
" style="fill: #ffffff"/>
  </g>
  <g id="axes_1">
   <g id="patch_2">
    <path d="M 34.119063 287.511875 
L 457.857062 287.511875 
L 457.857062 7.071875 
L 34.119063 7.071875 
z
" style="fill: #ffffff"/>
   </g>
   <g id="line2d_1">
    <path d="M 34.119063 217.401875 
L 457.857062 217.401875 
" clip-path="url(#pd5f746e03c)" style="fill: none; stroke-dasharray: 2.96,1.28; stroke-dashoffset: 0; stroke: #6e6e6e; stroke-width: 0.8"/>
   </g>
   <g id="line2d_2">
    <path d="M 34.119063 264.141875 
L 457.857062 264.141875 
" clip-path="url(#pd5f746e03c)" style="fill: none; stroke-dasharray: 2.96,1.28; stroke-dashoffset: 0; stroke: #6e6e6e; stroke-width: 0.8"/>
   </g>
   <g id="matplotlib.axis_1">
    <g id="xtick_1">
     <g id="line2d_3">
      <path d="M 79.068624 287.511875 
L 79.068624 7.071875 
" clip-path="url(#pd5f746e03c)" style="fill: none; stroke-dasharray: 2.59,1.12; stroke-dashoffset: 0; stroke: #b8b8b8; stroke-opacity: 0.22; stroke-width: 0.7"/>
     </g>
     <g id="line2d_4">
      <defs>
       <path id="m458fbe640a" d="M 0 0 
L 0 -4 
" style="stroke: #000000; stroke-width: 0.9"/>
      </defs>
      <g>
       <use xlink:href="#m458fbe640a" x="79.068624" y="287.511875" style="stroke: #000000; stroke-width: 0.9"/>
      </g>
     </g>
     <g id="line2d_5">
      <defs>
       <path id="ma47647b5c7" d="M 0 0 
L 0 4 
" style="stroke: #000000; stroke-width: 0.9"/>
      </defs>
      <g>
       <use xlink:href="#ma47647b5c7" x="79.068624" y="7.071875" style="stroke: #000000; stroke-width: 0.9"/>
      </g>
     </g>
     <g id="text_1">
      <text style="font-size: 10px; font-family: 'Times New Roman', 'DejaVu Serif', serif; text-anchor: middle" x="79.068624" y="298.455625" transform="rotate(-0 79.068624 298.455625)">100</text>
     </g>
    </g>
    <g id="xtick_2">
     <g id="line2d_6">
      <path d="M 129.573749 287.511875 
L 129.573749 7.071875 
" clip-path="url(#pd5f746e03c)" style="fill: none; stroke-dasharray: 2.59,1.12; stroke-dashoffset: 0; stroke: #b8b8b8; stroke-opacity: 0.22; stroke-width: 0.7"/>
     </g>
     <g id="line2d_7">
      <g>
       <use xlink:href="#m458fbe640a" x="129.573749" y="287.511875" style="stroke: #000000; stroke-width: 0.9"/>
      </g>
     </g>
     <g id="line2d_8">
      <g>
       <use xlink:href="#ma47647b5c7" x="129.573749" y="7.071875" style="stroke: #000000; stroke-width: 0.9"/>
      </g>
     </g>
     <g id="text_2">
      <text style="font-size: 10px; font-family: 'Times New Roman', 'DejaVu Serif', serif; text-anchor: middle" x="129.573749" y="298.455625" transform="rotate(-0 129.573749 298.455625)">200</text>
     </g>
    </g>
    <g id="xtick_3">
     <g id="line2d_9">
      <path d="M 180.078874 287.511875 
L 180.078874 7.071875 
" clip-path="url(#pd5f746e03c)" style="fill: none; stroke-dasharray: 2.59,1.12; stroke-dashoffset: 0; stroke: #b8b8b8; stroke-opacity: 0.22; stroke-width: 0.7"/>
     </g>
     <g id="line2d_10">
      <g>
       <use xlink:href="#m458fbe640a" x="180.078874" y="287.511875" style="stroke: #000000; stroke-width: 0.9"/>
      </g>
     </g>
     <g id="line2d_11">
      <g>
       <use xlink:href="#ma47647b5c7" x="180.078874" y="7.071875" style="stroke: #000000; stroke-width: 0.9"/>
      </g>
     </g>
     <g id="text_3">
      <text style="font-size: 10px; font-family: 'Times New Roman', 'DejaVu Serif', serif; text-anchor: middle" x="180.078874" y="298.455625" transform="rotate(-0 180.078874 298.455625)">300</text>
     </g>
    </g>
    <g id="xtick_4">
     <g id="line2d_12">
      <path d="M 230.583999 287.511875 
L 230.583999 7.071875 
" clip-path="url(#pd5f746e03c)" style="fill: none; stroke-dasharray: 2.59,1.12; stroke-dashoffset: 0; stroke: #b8b8b8; stroke-opacity: 0.22; stroke-width: 0.7"/>
     </g>
     <g id="line2d_13">
      <g>
       <use xlink:href="#m458fbe640a" x="230.583999" y="287.511875" style="stroke: #000000; stroke-width: 0.9"/>
      </g>
     </g>
     <g id="line2d_14">
      <g>
       <use xlink:href="#ma47647b5c7" x="230.583999" y="7.071875" style="stroke: #000000; stroke-width: 0.9"/>
      </g>
     </g>
     <g id="text_4">
      <text style="font-size: 10px; font-family: 'Times New Roman', 'DejaVu Serif', serif; text-anchor: middle" x="230.583999" y="298.455625" transform="rotate(-0 230.583999 298.455625)">400</text>
     </g>
    </g>
    <g id="xtick_5">
     <g id="line2d_15">
      <path d="M 281.089124 287.511875 
L 281.089124 7.071875 
" clip-path="url(#pd5f746e03c)" style="fill: none; stroke-dasharray: 2.59,1.12; stroke-dashoffset: 0; stroke: #b8b8b8; stroke-opacity: 0.22; stroke-width: 0.7"/>
     </g>
     <g id="line2d_16">
      <g>
       <use xlink:href="#m458fbe640a" x="281.089124" y="287.511875" style="stroke: #000000; stroke-width: 0.9"/>
      </g>
     </g>
     <g id="line2d_17">
      <g>
       <use xlink:href="#ma47647b5c7" x="281.089124" y="7.071875" style="stroke: #000000; stroke-width: 0.9"/>
      </g>
     </g>
     <g id="text_5">
      <text style="font-size: 10px; font-family: 'Times New Roman', 'DejaVu Serif', serif; text-anchor: middle" x="281.089124" y="298.455625" transform="rotate(-0 281.089124 298.455625)">500</text>
     </g>
    </g>
    <g id="xtick_6">
     <g id="line2d_18">
      <path d="M 331.59425 287.511875 
L 331.59425 7.071875 
" clip-path="url(#pd5f746e03c)" style="fill: none; stroke-dasharray: 2.59,1.12; stroke-dashoffset: 0; stroke: #b8b8b8; stroke-opacity: 0.22; stroke-width: 0.7"/>
     </g>
     <g id="line2d_19">
      <g>
       <use xlink:href="#m458fbe640a" x="331.59425" y="287.511875" style="stroke: #000000; stroke-width: 0.9"/>
      </g>
     </g>
     <g id="line2d_20">
      <g>
       <use xlink:href="#ma47647b5c7" x="331.59425" y="7.071875" style="stroke: #000000; stroke-width: 0.9"/>
      </g>
     </g>
     <g id="text_6">
      <text style="font-size: 10px; font-family: 'Times New Roman', 'DejaVu Serif', serif; text-anchor: middle" x="331.59425" y="298.455625" transform="rotate(-0 331.59425 298.455625)">600</text>
     </g>
    </g>
    <g id="xtick_7">
     <g id="line2d_21">
      <path d="M 382.099375 287.511875 
L 382.099375 7.071875 
" clip-path="url(#pd5f746e03c)" style="fill: none; stroke-dasharray: 2.59,1.12; stroke-dashoffset: 0; stroke: #b8b8b8; stroke-opacity: 0.22; stroke-width: 0.7"/>
     </g>
     <g id="line2d_22">
      <g>
       <use xlink:href="#m458fbe640a" x="382.099375" y="287.511875" style="stroke: #000000; stroke-width: 0.9"/>
      </g>
     </g>
     <g id="line2d_23">
      <g>
       <use xlink:href="#ma47647b5c7" x="382.099375" y="7.071875" style="stroke: #000000; stroke-width: 0.9"/>
      </g>
     </g>
     <g id="text_7">
      <text style="font-size: 10px; font-family: 'Times New Roman', 'DejaVu Serif', serif; text-anchor: middle" x="382.099375" y="298.455625" transform="rotate(-0 382.099375 298.455625)">700</text>
     </g>
    </g>
    <g id="xtick_8">
     <g id="line2d_24">
      <path d="M 432.6045 287.511875 
L 432.6045 7.071875 
" clip-path="url(#pd5f746e03c)" style="fill: none; stroke-dasharray: 2.59,1.12; stroke-dashoffset: 0; stroke: #b8b8b8; stroke-opacity: 0.22; stroke-width: 0.7"/>
     </g>
     <g id="line2d_25">
      <g>
       <use xlink:href="#m458fbe640a" x="432.6045" y="287.511875" style="stroke: #000000; stroke-width: 0.9"/>
      </g>
     </g>
     <g id="line2d_26">
      <g>
       <use xlink:href="#ma47647b5c7" x="432.6045" y="7.071875" style="stroke: #000000; stroke-width: 0.9"/>
      </g>
     </g>
     <g id="text_8">
      <text style="font-size: 10px; font-family: 'Times New Roman', 'DejaVu Serif', serif; text-anchor: middle" x="432.6045" y="298.455625" transform="rotate(-0 432.6045 298.455625)">800</text>
     </g>
    </g>
    <g id="text_9">
     <text style="font-size: 12px; font-family: 'Times New Roman', 'DejaVu Serif', serif; text-anchor: middle" x="245.988063" y="312.927187" transform="rotate(-0 245.988063 312.927187)">Analysis step</text>
    </g>
   </g>
   <g id="matplotlib.axis_2">
    <g id="ytick_1">
     <g id="line2d_27">
      <path d="M 34.119063 287.511875 
L 457.857062 287.511875 
" clip-path="url(#pd5f746e03c)" style="fill: none; stroke-dasharray: 2.59,1.12; stroke-dashoffset: 0; stroke: #b8b8b8; stroke-opacity: 0.22; stroke-width: 0.7"/>
     </g>
     <g id="line2d_28">
      <defs>
       <path id="ma6d93e3cc3" d="M 0 0 
L 4 0 
" style="stroke: #000000; stroke-width: 0.9"/>
      </defs>
      <g>
       <use xlink:href="#ma6d93e3cc3" x="34.119063" y="287.511875" style="stroke: #000000; stroke-width: 0.9"/>
      </g>
     </g>
     <g id="line2d_29">
      <defs>
       <path id="m53dc755f02" d="M 0 0 
L -4 0 
" style="stroke: #000000; stroke-width: 0.9"/>
      </defs>
      <g>
       <use xlink:href="#m53dc755f02" x="457.857062" y="287.511875" style="stroke: #000000; stroke-width: 0.9"/>
      </g>
     </g>
     <g id="text_10">
      <text style="font-size: 10px; font-family: 'Times New Roman', 'DejaVu Serif', serif; text-anchor: end" x="30.119063" y="290.98375" transform="rotate(-0 30.119063 290.98375)">−2</text>
     </g>
    </g>
    <g id="ytick_2">
     <g id="line2d_30">
      <path d="M 34.119063 264.141875 
L 457.857062 264.141875 
" clip-path="url(#pd5f746e03c)" style="fill: none; stroke-dasharray: 2.59,1.12; stroke-dashoffset: 0; stroke: #b8b8b8; stroke-opacity: 0.22; stroke-width: 0.7"/>
     </g>
     <g id="line2d_31">
      <g>
       <use xlink:href="#ma6d93e3cc3" x="34.119063" y="264.141875" style="stroke: #000000; stroke-width: 0.9"/>
      </g>
     </g>
     <g id="line2d_32">
      <g>
       <use xlink:href="#m53dc755f02" x="457.857062" y="264.141875" style="stroke: #000000; stroke-width: 0.9"/>
      </g>
     </g>
     <g id="text_11">
      <text style="font-size: 10px; font-family: 'Times New Roman', 'DejaVu Serif', serif; text-anchor: end" x="30.119063" y="267.61375" transform="rotate(-0 30.119063 267.61375)">−1</text>
     </g>
    </g>
    <g id="ytick_3">
     <g id="line2d_33">
      <path d="M 34.119063 240.771875 
L 457.857062 240.771875 
" clip-path="url(#pd5f746e03c)" style="fill: none; stroke-dasharray: 2.59,1.12; stroke-dashoffset: 0; stroke: #b8b8b8; stroke-opacity: 0.22; stroke-width: 0.7"/>
     </g>
     <g id="line2d_34">
      <g>
       <use xlink:href="#ma6d93e3cc3" x="34.119063" y="240.771875" style="stroke: #000000; stroke-width: 0.9"/>
      </g>
     </g>
     <g id="line2d_35">
      <g>
       <use xlink:href="#m53dc755f02" x="457.857062" y="240.771875" style="stroke: #000000; stroke-width: 0.9"/>
      </g>
     </g>
     <g id="text_12">
      <text style="font-size: 10px; font-family: 'Times New Roman', 'DejaVu Serif', serif; text-anchor: end" x="30.119063" y="244.24375" transform="rotate(-0 30.119063 244.24375)">0</text>
     </g>
    </g>
    <g id="ytick_4">
     <g id="line2d_36">
      <path d="M 34.119063 217.401875 
L 457.857062 217.401875 
" clip-path="url(#pd5f746e03c)" style="fill: none; stroke-dasharray: 2.59,1.12; stroke-dashoffset: 0; stroke: #b8b8b8; stroke-opacity: 0.22; stroke-width: 0.7"/>
     </g>
     <g id="line2d_37">
      <g>
       <use xlink:href="#ma6d93e3cc3" x="34.119063" y="217.401875" style="stroke: #000000; stroke-width: 0.9"/>
      </g>
     </g>
     <g id="line2d_38">
      <g>
       <use xlink:href="#m53dc755f02" x="457.857062" y="217.401875" style="stroke: #000000; stroke-width: 0.9"/>
      </g>
     </g>
     <g id="text_13">
      <text style="font-size: 10px; font-family: 'Times New Roman', 'DejaVu Serif', serif; text-anchor: end" x="30.119063" y="220.87375" transform="rotate(-0 30.119063 220.87375)">1</text>
     </g>
    </g>
    <g id="ytick_5">
     <g id="line2d_39">
      <path d="M 34.119063 194.031875 
L 457.857062 194.031875 
" clip-path="url(#pd5f746e03c)" style="fill: none; stroke-dasharray: 2.59,1.12; stroke-dashoffset: 0; stroke: #b8b8b8; stroke-opacity: 0.22; stroke-width: 0.7"/>
     </g>
     <g id="line2d_40">
      <g>
       <use xlink:href="#ma6d93e3cc3" x="34.119063" y="194.031875" style="stroke: #000000; stroke-width: 0.9"/>
      </g>
     </g>
     <g id="line2d_41">
      <g>
       <use xlink:href="#m53dc755f02" x="457.857062" y="194.031875" style="stroke: #000000; stroke-width: 0.9"/>
      </g>
     </g>
     <g id="text_14">
      <text style="font-size: 10px; font-family: 'Times New Roman', 'DejaVu Serif', serif; text-anchor: end" x="30.119063" y="197.50375" transform="rotate(-0 30.119063 197.50375)">2</text>
     </g>
    </g>
    <g id="ytick_6">
     <g id="line2d_42">
      <path d="M 34.119063 170.661875 
L 457.857062 170.661875 
" clip-path="url(#pd5f746e03c)" style="fill: none; stroke-dasharray: 2.59,1.12; stroke-dashoffset: 0; stroke: #b8b8b8; stroke-opacity: 0.22; stroke-width: 0.7"/>
     </g>
     <g id="line2d_43">
      <g>
       <use xlink:href="#ma6d93e3cc3" x="34.119063" y="170.661875" style="stroke: #000000; stroke-width: 0.9"/>
      </g>
     </g>
     <g id="line2d_44">
      <g>
       <use xlink:href="#m53dc755f02" x="457.857062" y="170.661875" style="stroke: #000000; stroke-width: 0.9"/>
      </g>
     </g>
     <g id="text_15">
      <text style="font-size: 10px; font-family: 'Times New Roman', 'DejaVu Serif', serif; text-anchor: end" x="30.119063" y="174.13375" transform="rotate(-0 30.119063 174.13375)">3</text>
     </g>
    </g>
    <g id="ytick_7">
     <g id="line2d_45">
      <path d="M 34.119063 147.291875 
L 457.857062 147.291875 
" clip-path="url(#pd5f746e03c)" style="fill: none; stroke-dasharray: 2.59,1.12; stroke-dashoffset: 0; stroke: #b8b8b8; stroke-opacity: 0.22; stroke-width: 0.7"/>
     </g>
     <g id="line2d_46">
      <g>
       <use xlink:href="#ma6d93e3cc3" x="34.119063" y="147.291875" style="stroke: #000000; stroke-width: 0.9"/>
      </g>
     </g>
     <g id="line2d_47">
      <g>
       <use xlink:href="#m53dc755f02" x="457.857062" y="147.291875" style="stroke: #000000; stroke-width: 0.9"/>
      </g>
     </g>
     <g id="text_16">
      <text style="font-size: 10px; font-family: 'Times New Roman', 'DejaVu Serif', serif; text-anchor: end" x="30.119063" y="150.76375" transform="rotate(-0 30.119063 150.76375)">4</text>
     </g>
    </g>
    <g id="ytick_8">
     <g id="line2d_48">
      <path d="M 34.119063 123.921875 
L 457.857062 123.921875 
" clip-path="url(#pd5f746e03c)" style="fill: none; stroke-dasharray: 2.59,1.12; stroke-dashoffset: 0; stroke: #b8b8b8; stroke-opacity: 0.22; stroke-width: 0.7"/>
     </g>
     <g id="line2d_49">
      <g>
       <use xlink:href="#ma6d93e3cc3" x="34.119063" y="123.921875" style="stroke: #000000; stroke-width: 0.9"/>
      </g>
     </g>
     <g id="line2d_50">
      <g>
       <use xlink:href="#m53dc755f02" x="457.857062" y="123.921875" style="stroke: #000000; stroke-width: 0.9"/>
      </g>
     </g>
     <g id="text_17">
      <text style="font-size: 10px; font-family: 'Times New Roman', 'DejaVu Serif', serif; text-anchor: end" x="30.119063" y="127.39375" transform="rotate(-0 30.119063 127.39375)">5</text>
     </g>
    </g>
    <g id="ytick_9">
     <g id="line2d_51">
      <path d="M 34.119063 100.551875 
L 457.857062 100.551875 
" clip-path="url(#pd5f746e03c)" style="fill: none; stroke-dasharray: 2.59,1.12; stroke-dashoffset: 0; stroke: #b8b8b8; stroke-opacity: 0.22; stroke-width: 0.7"/>
     </g>
     <g id="line2d_52">
      <g>
       <use xlink:href="#ma6d93e3cc3" x="34.119063" y="100.551875" style="stroke: #000000; stroke-width: 0.9"/>
      </g>
     </g>
     <g id="line2d_53">
      <g>
       <use xlink:href="#m53dc755f02" x="457.857062" y="100.551875" style="stroke: #000000; stroke-width: 0.9"/>
      </g>
     </g>
     <g id="text_18">
      <text style="font-size: 10px; font-family: 'Times New Roman', 'DejaVu Serif', serif; text-anchor: end" x="30.119063" y="104.02375" transform="rotate(-0 30.119063 104.02375)">6</text>
     </g>
    </g>
    <g id="ytick_10">
     <g id="line2d_54">
      <path d="M 34.119063 77.181875 
L 457.857062 77.181875 
" clip-path="url(#pd5f746e03c)" style="fill: none; stroke-dasharray: 2.59,1.12; stroke-dashoffset: 0; stroke: #b8b8b8; stroke-opacity: 0.22; stroke-width: 0.7"/>
     </g>
     <g id="line2d_55">
      <g>
       <use xlink:href="#ma6d93e3cc3" x="34.119063" y="77.181875" style="stroke: #000000; stroke-width: 0.9"/>
      </g>
     </g>
     <g id="line2d_56">
      <g>
       <use xlink:href="#m53dc755f02" x="457.857062" y="77.181875" style="stroke: #000000; stroke-width: 0.9"/>
      </g>
     </g>
     <g id="text_19">
      <text style="font-size: 10px; font-family: 'Times New Roman', 'DejaVu Serif', serif; text-anchor: end" x="30.119063" y="80.65375" transform="rotate(-0 30.119063 80.65375)">7</text>
     </g>
    </g>
    <g id="ytick_11">
     <g id="line2d_57">
      <path d="M 34.119063 53.811875 
L 457.857062 53.811875 
" clip-path="url(#pd5f746e03c)" style="fill: none; stroke-dasharray: 2.59,1.12; stroke-dashoffset: 0; stroke: #b8b8b8; stroke-opacity: 0.22; stroke-width: 0.7"/>
     </g>
     <g id="line2d_58">
      <g>
       <use xlink:href="#ma6d93e3cc3" x="34.119063" y="53.811875" style="stroke: #000000; stroke-width: 0.9"/>
      </g>
     </g>
     <g id="line2d_59">
      <g>
       <use xlink:href="#m53dc755f02" x="457.857062" y="53.811875" style="stroke: #000000; stroke-width: 0.9"/>
      </g>
     </g>
     <g id="text_20">
      <text style="font-size: 10px; font-family: 'Times New Roman', 'DejaVu Serif', serif; text-anchor: end" x="30.119063" y="57.28375" transform="rotate(-0 30.119063 57.28375)">8</text>
     </g>
    </g>
    <g id="ytick_12">
     <g id="line2d_60">
      <path d="M 34.119063 30.441875 
L 457.857062 30.441875 
" clip-path="url(#pd5f746e03c)" style="fill: none; stroke-dasharray: 2.59,1.12; stroke-dashoffset: 0; stroke: #b8b8b8; stroke-opacity: 0.22; stroke-width: 0.7"/>
     </g>
     <g id="line2d_61">
      <g>
       <use xlink:href="#ma6d93e3cc3" x="34.119063" y="30.441875" style="stroke: #000000; stroke-width: 0.9"/>
      </g>
     </g>
     <g id="line2d_62">
      <g>
       <use xlink:href="#m53dc755f02" x="457.857062" y="30.441875" style="stroke: #000000; stroke-width: 0.9"/>
      </g>
     </g>
     <g id="text_21">
      <text style="font-size: 10px; font-family: 'Times New Roman', 'DejaVu Serif', serif; text-anchor: end" x="30.119063" y="33.91375" transform="rotate(-0 30.119063 33.91375)">9</text>
     </g>
    </g>
    <g id="ytick_13">
     <g id="line2d_63">
      <path d="M 34.119063 7.071875 
L 457.857062 7.071875 
" clip-path="url(#pd5f746e03c)" style="fill: none; stroke-dasharray: 2.59,1.12; stroke-dashoffset: 0; stroke: #b8b8b8; stroke-opacity: 0.22; stroke-width: 0.7"/>
     </g>
     <g id="line2d_64">
      <g>
       <use xlink:href="#ma6d93e3cc3" x="34.119063" y="7.071875" style="stroke: #000000; stroke-width: 0.9"/>
      </g>
     </g>
     <g id="line2d_65">
      <g>
       <use xlink:href="#m53dc755f02" x="457.857062" y="7.071875" style="stroke: #000000; stroke-width: 0.9"/>
      </g>
     </g>
     <g id="text_22">
      <text style="font-size: 10px; font-family: 'Times New Roman', 'DejaVu Serif', serif; text-anchor: end" x="30.119063" y="10.54375" transform="rotate(-0 30.119063 10.54375)">10</text>
     </g>
    </g>
    <g id="text_23">
     <!-- Column longitudinal strain, $\epsilon_{\mathrm{s}}/\epsilon_{\mathrm{y}}$ -->
     <g transform="translate(12 226.251875) rotate(-90)">
      <text>
       <tspan x="0" y="-0.671875" style="font-size: 12px; font-family: 'Times New Roman'">C</tspan>
       <tspan x="8.003906" y="-0.671875" style="font-size: 12px; font-family: 'Times New Roman'">o</tspan>
       <tspan x="14.003906" y="-0.671875" style="font-size: 12px; font-family: 'Times New Roman'">l</tspan>
       <tspan x="17.337891" y="-0.671875" style="font-size: 12px; font-family: 'Times New Roman'">u</tspan>
       <tspan x="23.337891" y="-0.671875" style="font-size: 12px; font-family: 'Times New Roman'">m</tspan>
       <tspan x="32.671875" y="-0.671875" style="font-size: 12px; font-family: 'Times New Roman'">n</tspan>
       <tspan x="38.671875" y="-0.671875" style="font-size: 12px; font-family: 'Times New Roman'"> </tspan>
       <tspan x="41.671875" y="-0.671875" style="font-size: 12px; font-family: 'Times New Roman'">l</tspan>
       <tspan x="45.005859" y="-0.671875" style="font-size: 12px; font-family: 'Times New Roman'">o</tspan>
       <tspan x="51.005859" y="-0.671875" style="font-size: 12px; font-family: 'Times New Roman'">n</tspan>
       <tspan x="57.005859" y="-0.671875" style="font-size: 12px; font-family: 'Times New Roman'">g</tspan>
       <tspan x="63.005859" y="-0.671875" style="font-size: 12px; font-family: 'Times New Roman'">i</tspan>
       <tspan x="66.339844" y="-0.671875" style="font-size: 12px; font-family: 'Times New Roman'">t</tspan>
       <tspan x="69.673828" y="-0.671875" style="font-size: 12px; font-family: 'Times New Roman'">u</tspan>
       <tspan x="75.673828" y="-0.671875" style="font-size: 12px; font-family: 'Times New Roman'">d</tspan>
       <tspan x="81.673828" y="-0.671875" style="font-size: 12px; font-family: 'Times New Roman'">i</tspan>
       <tspan x="85.007812" y="-0.671875" style="font-size: 12px; font-family: 'Times New Roman'">n</tspan>
       <tspan x="91.007812" y="-0.671875" style="font-size: 12px; font-family: 'Times New Roman'">a</tspan>
       <tspan x="96.333984" y="-0.671875" style="font-size: 12px; font-family: 'Times New Roman'">l</tspan>
       <tspan x="99.667969" y="-0.671875" style="font-size: 12px; font-family: 'Times New Roman'"> </tspan>
       <tspan x="102.667969" y="-0.671875" style="font-size: 12px; font-family: 'Times New Roman'">s</tspan>
       <tspan x="107.337891" y="-0.671875" style="font-size: 12px; font-family: 'Times New Roman'">t</tspan>
       <tspan x="110.671875" y="-0.671875" style="font-size: 12px; font-family: 'Times New Roman'">r</tspan>
       <tspan x="114.667969" y="-0.671875" style="font-size: 12px; font-family: 'Times New Roman'">a</tspan>
       <tspan x="119.994141" y="-0.671875" style="font-size: 12px; font-family: 'Times New Roman'">i</tspan>
       <tspan x="123.328125" y="-0.671875" style="font-size: 12px; font-family: 'Times New Roman'">n</tspan>
       <tspan x="129.328125" y="-0.671875" style="font-size: 12px; font-family: 'Times New Roman'">,</tspan>
       <tspan x="132.328125" y="-0.671875" style="font-size: 12px; font-family: 'Times New Roman'"> </tspan>
       <tspan x="135.328125" y="-0.671875" style="font-style: italic; font-size: 12px; font-family: 'STIXGeneral'">ε</tspan>
       <tspan x="147.789388" y="-0.671875" style="font-style: italic; font-size: 12px; font-family: 'STIXGeneral'">ε</tspan>
       <tspan x="140.656113" y="0.917188" style="font-size: 8.4px; font-family: 'STIXGeneral'">s</tspan>
       <tspan x="153.117375" y="0.917188" style="font-size: 8.4px; font-family: 'STIXGeneral'">y</tspan>
       <tspan x="144.453389" y="-0.671875" style="font-size: 12px; font-family: 'STIXGeneral'">/</tspan>
      </text>
     </g>
    </g>
   </g>
   <g id="line2d_66">
    <path d="M 34.119063 240.279936 
L 34.624114 239.112605 
L 35.129165 237.46502 
L 35.634216 233.56223 
L 36.644319 230.605925 
L 37.14937 229.379 
L 37.654421 229.09856 
L 38.664524 226.749875 
L 42.704934 238.75037 
L 43.715036 241.049978 
L 44.220088 241.564118 
L 45.23019 242.103965 
L 46.745344 242.477885 
L 48.765549 242.88686 
L 51.290805 242.174075 
L 52.805959 241.713686 
L 53.31101 241.489334 
L 53.816061 241.089707 
L 54.321113 240.26942 
L 54.826164 238.925645 
L 56.846369 232.30025 
L 58.361523 228.268925 
L 60.381728 223.828625 
L 61.896881 220.673675 
L 62.401933 219.271475 
L 63.412035 215.415425 
L 63.917086 212.611025 
L 64.422138 213.896375 
L 65.43224 215.999675 
L 71.997906 232.4171 
L 73.51306 236.10956 
L 74.523163 239.687507 
L 75.028214 240.416651 
L 76.543368 241.13411 
L 77.048419 241.275498 
L 78.058521 241.386506 
L 79.068624 241.866759 
L 80.078726 242.4662 
L 80.583778 242.86349 
L 81.59388 244.1021 
L 84.119136 246.13529 
L 88.664598 243.272465 
L 92.199956 240.986879 
L 92.705008 240.610622 
L 93.210059 240.057921 
L 94.220161 237.616925 
L 94.725213 235.82912 
L 95.735315 233.44538 
L 96.745418 231.13175 
L 98.260571 226.399325 
L 100.280776 220.556825 
L 100.785828 219.271475 
L 101.290879 218.920925 
L 102.300981 216.467075 
L 103.311084 213.545825 
L 103.816135 211.442525 
L 104.826238 201.393425 
L 105.331289 195.901475 
L 105.83634 192.746525 
L 106.846443 183.632225 
L 107.351494 178.023425 
L 107.856545 163.300325 
L 109.87675 136.191125 
L 110.381801 125.207225 
L 110.886853 116.910875 
L 113.412109 86.529875 
L 113.91716 78.350375 
L 114.422211 72.507875 
L 119.472724 84.192875 
L 119.977775 84.192875 
L 121.99798 88.866875 
L 122.503032 88.866875 
L 124.018185 92.372375 
L 124.523237 92.372375 
L 125.533339 94.709375 
L 126.03839 94.709375 
L 127.048493 97.046375 
L 127.553544 97.046375 
L 130.0788 102.888875 
L 130.583852 102.888875 
L 133.614159 109.899875 
L 134.11921 112.236875 
L 134.624262 112.236875 
L 135.129313 114.573875 
L 136.644467 118.079375 
L 137.149518 118.079375 
L 137.654569 120.416375 
L 138.15962 124.038725 
L 138.664672 130.231775 
L 141.189928 176.854925 
L 142.20003 192.045425 
L 143.715184 213.078425 
L 144.725287 222.660125 
L 145.230338 226.633025 
L 145.735389 229.367315 
L 146.24044 231.377135 
L 147.250543 233.667395 
L 147.755594 234.40355 
L 148.260645 234.882635 
L 150.28085 235.957655 
L 150.785902 236.051135 
L 151.796004 235.9226 
L 152.301055 234.111425 
L 153.816209 232.79102 
L 154.32126 232.11329 
L 154.826312 231.80948 
L 155.836414 231.704315 
L 157.351568 231.50567 
L 159.876824 230.89805 
L 160.886927 230.185265 
L 162.907132 228.268925 
L 164.927337 226.282475 
L 166.44249 224.412875 
L 167.452593 222.893825 
L 169.472798 218.920925 
L 169.977849 218.102975 
L 170.987952 215.765975 
L 172.503105 214.948025 
L 173.008157 214.480625 
L 174.018259 212.611025 
L 174.52331 212.727875 
L 177.048567 208.287575 
L 177.553618 207.703325 
L 178.058669 206.534825 
L 178.56372 205.950575 
L 180.078874 203.029325 
L 186.64454 190.760075 
L 187.149592 189.591575 
L 187.654643 187.838825 
L 188.159694 185.384975 
L 189.674848 174.517925 
L 191.695053 154.419725 
L 193.715258 128.245325 
L 194.220309 120.416375 
L 194.72536 107.562875 
L 195.230412 108.731375 
L 195.735463 106.394375 
L 198.76577 72.507875 
L 200.280924 58.485875 
L 200.785975 51.474875 
L 201.796078 42.126875 
L 202.301129 38.621375 
L 202.80618 33.947375 
L 203.311232 30.441875 
L 204.826386 30.441875 
L 205.331437 28.104875 
L 205.836488 30.441875 
L 206.341539 30.441875 
L 208.361744 35.115875 
L 208.866796 35.115875 
L 209.876898 37.452875 
L 210.381949 37.452875 
L 211.392052 39.789875 
L 211.897103 39.789875 
L 212.402154 40.958375 
L 212.907206 40.958375 
L 213.917308 43.295375 
L 214.422359 43.295375 
L 214.927411 44.463875 
L 215.432462 44.463875 
L 215.937513 45.632375 
L 216.442564 45.632375 
L 216.947616 46.800875 
L 217.957718 46.800875 
L 218.462769 47.969375 
L 218.967821 47.969375 
L 219.472872 49.137875 
L 219.977923 49.137875 
L 220.482974 50.306375 
L 220.988026 50.306375 
L 221.493077 51.474875 
L 221.998128 51.474875 
L 222.503179 52.643375 
L 223.513282 52.643375 
L 224.018333 53.811875 
L 224.523384 53.811875 
L 225.028436 54.980375 
L 225.533487 54.980375 
L 226.038538 56.148875 
L 228.058743 56.148875 
L 228.563794 57.317375 
L 230.583999 57.317375 
L 231.594102 59.654375 
L 232.099153 59.654375 
L 232.604204 60.822875 
L 233.109256 60.822875 
L 233.614307 61.991375 
L 234.119358 61.991375 
L 235.129461 64.328375 
L 235.634512 64.328375 
L 236.139563 65.496875 
L 236.644614 65.496875 
L 237.149666 66.665375 
L 237.654717 66.665375 
L 238.159768 67.833875 
L 238.664819 67.833875 
L 239.674922 70.170875 
L 240.179973 70.170875 
L 240.685024 71.339375 
L 241.190076 71.339375 
L 241.695127 72.507875 
L 242.200178 72.507875 
L 242.705229 73.676375 
L 243.210281 73.676375 
L 244.220383 76.013375 
L 244.725434 76.013375 
L 245.230486 74.844875 
L 246.240588 77.181875 
L 246.745639 79.518875 
L 247.250691 80.687375 
L 247.755742 86.529875 
L 248.260793 90.035375 
L 248.765844 94.709375 
L 249.270896 97.046375 
L 250.280998 97.046375 
L 250.786049 98.214875 
L 251.796152 102.888875 
L 252.301203 106.394375 
L 252.806254 108.731375 
L 253.311306 106.394375 
L 253.816357 105.225875 
L 254.321408 102.888875 
L 254.826459 101.720375 
L 256.341613 101.720375 
L 256.846664 100.551875 
L 257.856767 100.551875 
L 258.361818 101.720375 
L 261.392126 101.720375 
L 261.897177 100.551875 
L 263.412331 100.551875 
L 263.917382 101.720375 
L 265.937587 101.720375 
L 266.442638 102.888875 
L 274.018407 102.888875 
L 274.523458 101.720375 
L 276.038612 101.720375 
L 276.543663 100.551875 
L 277.553766 100.551875 
L 278.058817 99.383375 
L 279.068919 99.383375 
L 279.573971 98.214875 
L 280.584073 98.214875 
L 281.089124 97.046375 
L 282.099227 97.046375 
L 282.604278 95.877875 
L 283.614381 95.877875 
L 284.119432 94.709375 
L 285.129534 94.709375 
L 285.634586 93.540875 
L 286.139637 93.540875 
L 286.644688 92.372375 
L 287.654791 92.372375 
L 288.159842 91.203875 
L 288.664893 91.203875 
L 289.169945 90.035375 
L 290.180047 90.035375 
L 290.685098 88.866875 
L 292.200252 88.866875 
L 292.705303 87.698375 
L 293.715406 87.698375 
L 294.220457 86.529875 
L 294.725508 87.698375 
L 295.735611 87.698375 
L 296.240662 86.529875 
L 297.755816 86.529875 
L 298.260867 87.698375 
L 299.27097 85.361375 
L 300.281072 85.361375 
L 300.786123 84.192875 
L 301.796226 84.192875 
L 302.301277 83.024375 
L 303.816431 83.024375 
L 304.321482 81.855875 
L 304.826533 81.855875 
L 305.331585 80.687375 
L 305.836636 80.687375 
L 306.341687 79.518875 
L 307.35179 79.518875 
L 307.856841 78.350375 
L 308.361892 78.350375 
L 308.866943 77.181875 
L 309.371995 77.181875 
L 309.877046 76.013375 
L 310.887148 76.013375 
L 311.3922 74.844875 
L 312.402302 74.844875 
L 312.907353 73.676375 
L 314.422507 73.676375 
L 314.927558 72.507875 
L 316.442712 72.507875 
L 316.947763 71.339375 
L 317.452815 71.339375 
L 317.957866 70.170875 
L 318.967968 70.170875 
L 319.47302 69.002375 
L 319.978071 69.002375 
L 320.483122 67.833875 
L 321.493225 67.833875 
L 321.998276 66.665375 
L 323.008378 66.665375 
L 323.51343 65.496875 
L 324.523532 65.496875 
L 325.028583 64.328375 
L 325.533635 64.328375 
L 326.038686 65.496875 
L 327.048788 65.496875 
L 327.55384 64.328375 
L 328.563942 64.328375 
L 329.068993 63.159875 
L 331.089198 63.159875 
L 331.59425 61.991375 
L 332.099301 63.159875 
L 332.604352 63.159875 
L 333.109403 64.328375 
L 336.139711 64.328375 
L 336.644762 61.991375 
L 338.159916 65.496875 
L 338.664967 65.496875 
L 339.170018 66.665375 
L 340.180121 66.665375 
L 340.685172 67.833875 
L 341.190223 67.833875 
L 341.695275 69.002375 
L 342.705377 69.002375 
L 343.210428 70.170875 
L 343.71548 70.170875 
L 344.220531 71.339375 
L 345.230633 71.339375 
L 345.735685 72.507875 
L 346.745787 72.507875 
L 347.250838 73.676375 
L 348.260941 73.676375 
L 348.765992 74.844875 
L 349.271043 74.844875 
L 349.776095 76.013375 
L 350.786197 76.013375 
L 351.291248 77.181875 
L 352.301351 77.181875 
L 352.806402 78.350375 
L 353.816505 78.350375 
L 354.321556 79.518875 
L 355.331658 79.518875 
L 355.83671 80.687375 
L 356.846812 80.687375 
L 357.351863 81.855875 
L 357.856915 81.855875 
L 358.361966 83.024375 
L 359.372068 83.024375 
L 359.87712 84.192875 
L 360.887222 84.192875 
L 361.392273 85.361375 
L 362.907427 85.361375 
L 363.412478 86.529875 
L 365.432683 86.529875 
L 365.937735 87.698375 
L 367.452888 87.698375 
L 367.95794 88.866875 
L 368.968042 88.866875 
L 369.473093 90.035375 
L 372.503401 90.035375 
L 373.008452 88.866875 
L 373.513504 90.035375 
L 374.523606 90.035375 
L 375.028657 91.203875 
L 378.564016 91.203875 
L 379.069067 92.372375 
L 379.574119 91.203875 
L 380.584221 91.203875 
L 381.089272 92.372375 
L 383.109477 92.372375 
L 383.614529 93.540875 
L 385.129682 93.540875 
L 385.634734 94.709375 
L 387.654939 94.709375 
L 388.15999 95.877875 
L 392.705451 95.877875 
L 393.210502 97.046375 
L 395.735759 97.046375 
L 396.24081 98.214875 
L 398.261015 98.214875 
L 398.766066 99.383375 
L 401.291322 99.383375 
L 401.796374 100.551875 
L 402.301425 100.551875 
L 402.806476 99.383375 
L 406.341835 99.383375 
L 406.846886 98.214875 
L 410.382245 98.214875 
L 410.887296 97.046375 
L 411.897399 97.046375 
L 412.40245 95.877875 
L 412.907501 95.877875 
L 413.917604 93.540875 
L 414.422655 93.540875 
L 416.947911 87.698375 
L 417.452962 87.698375 
L 417.958014 88.866875 
L 418.463065 88.866875 
L 419.473167 91.203875 
L 419.978219 91.203875 
L 420.988321 93.540875 
L 421.493372 93.540875 
L 422.503475 95.877875 
L 423.008526 95.877875 
L 424.018629 98.214875 
L 424.52368 98.214875 
L 425.028731 99.383375 
L 425.533782 99.383375 
L 426.038834 100.551875 
L 426.543885 100.551875 
L 427.048936 101.720375 
L 431.594397 101.720375 
L 432.099449 100.551875 
L 434.119654 100.551875 
L 434.624705 99.383375 
L 436.64491 99.383375 
L 437.149961 98.214875 
L 438.665115 98.214875 
L 439.170166 97.046375 
L 440.68532 97.046375 
L 441.190371 95.877875 
L 442.200474 95.877875 
L 442.705525 94.709375 
L 444.72573 94.709375 
L 445.230781 93.540875 
L 446.745935 93.540875 
L 447.250986 92.372375 
L 449.271191 92.372375 
L 449.776242 91.203875 
L 451.291396 91.203875 
L 451.796447 90.035375 
L 453.311601 90.035375 
L 453.816652 88.866875 
L 454.321704 88.866875 
L 454.826755 90.035375 
L 455.331806 90.035375 
L 455.836857 88.866875 
L 456.341909 90.035375 
L 456.84696 88.866875 
L 457.352011 90.035375 
L 457.857062 88.866875 
L 457.857062 88.866875 
" clip-path="url(#pd5f746e03c)" style="fill: none; stroke: #0072b2; stroke-width: 1.7; stroke-linecap: square"/>
   </g>
   <g id="line2d_67">
    <path d="M 34.119063 240.298632 
L 34.624114 239.26451 
L 35.129165 237.90905 
L 35.634216 234.999485 
L 36.139268 233.04809 
L 38.159473 228.619475 
L 38.664524 228.268925 
L 40.684729 233.901095 
L 43.209985 240.216837 
L 43.715036 241.058157 
L 44.220088 241.545422 
L 46.240293 242.571365 
L 47.755446 243.062135 
L 48.765549 243.28415 
L 51.290805 242.34935 
L 52.805959 241.763931 
L 53.816061 241.067505 
L 54.321113 240.209826 
L 60.381728 225.230825 
L 60.886779 224.529725 
L 61.39183 223.478075 
L 62.401933 221.959025 
L 62.906984 221.141075 
L 63.917086 218.920925 
L 65.43224 222.893825 
L 68.462548 229.671125 
L 73.008009 239.416415 
L 73.51306 240.438852 
L 74.018111 241.081527 
L 74.523163 241.506861 
L 75.533265 241.987115 
L 77.048419 242.4662 
L 79.068624 242.734955 
L 80.078726 242.968655 
L 81.088829 243.319205 
L 82.098931 243.880085 
L 82.603983 244.347485 
L 83.109034 245.048585 
L 84.119136 245.85485 
L 86.139341 245.10701 
L 92.199956 242.48957 
L 93.71511 241.511535 
L 94.220161 241.097886 
L 95.230264 239.890826 
L 95.735315 239.12429 
L 96.745418 236.67044 
L 97.75552 234.368495 
L 99.775725 229.998305 
L 102.806033 223.361225 
L 104.826238 218.920925 
L 105.331289 217.518725 
L 105.83634 215.649125 
L 106.341391 213.312125 
L 106.846443 210.274025 
L 107.351494 206.417975 
L 107.856545 201.510275 
L 108.361596 194.148725 
L 108.866648 189.708425 
L 109.87675 178.490825 
L 110.381801 171.830375 
L 110.886853 168.091175 
L 111.391904 166.805825 
L 111.896955 164.468825 
L 113.412109 153.017525 
L 113.91716 153.368075 
L 114.422211 152.783825 
L 115.432314 154.887125 
L 116.947468 157.224125 
L 117.452519 157.925225 
L 117.95757 158.860025 
L 118.462621 159.444275 
L 120.482827 162.599225 
L 121.99798 164.585675 
L 123.008083 165.871025 
L 124.018185 167.506925 
L 125.028288 168.792275 
L 128.058595 173.115725 
L 128.563647 174.050525 
L 129.068698 174.401075 
L 130.0788 175.569575 
L 130.583852 176.387525 
L 131.088903 176.854925 
L 131.593954 177.556025 
L 132.099005 178.607675 
L 133.109108 181.645775 
L 134.11921 184.567025 
L 135.129313 187.254575 
L 135.634364 187.955675 
L 137.149518 189.124175 
L 137.654569 189.825275 
L 138.664672 192.162275 
L 141.189928 199.406975 
L 142.20003 202.211375 
L 143.715184 205.950575 
L 144.725287 209.339225 
L 145.230338 219.037775 
L 145.735389 222.426425 
L 146.24044 224.997125 
L 146.745492 226.516175 
L 147.250543 226.749875 
L 147.755594 226.282475 
L 149.270748 226.633025 
L 150.785902 226.633025 
L 151.290953 225.931925 
L 152.301055 225.698225 
L 152.806107 225.815075 
L 153.311158 226.399325 
L 153.816209 226.516175 
L 154.32126 226.165625 
L 154.826312 226.048775 
L 155.331363 226.048775 
L 155.836414 225.931925 
L 156.341465 225.931925 
L 156.846517 225.815075 
L 157.351568 225.347675 
L 161.897029 217.869275 
L 163.412183 215.298575 
L 164.927337 213.078425 
L 167.957644 208.053875 
L 169.472798 205.015775 
L 170.4829 203.029325 
L 171.493003 201.510275 
L 173.008157 199.757525 
L 173.513208 199.757525 
L 174.018259 199.173275 
L 175.533413 196.836275 
L 176.543515 195.434075 
L 177.048567 194.382425 
L 177.553618 193.681325 
L 180.078874 192.045425 
L 180.583925 191.928575 
L 181.088977 191.578025 
L 185.129387 186.787175 
L 185.634438 185.852375 
L 186.139489 185.618675 
L 186.64454 185.151275 
L 187.149592 185.151275 
L 188.664745 183.982775 
L 189.674848 183.164825 
L 192.200104 181.528925 
L 192.705155 181.412075 
L 193.210207 181.178375 
L 194.72536 181.996325 
L 195.230412 182.346875 
L 196.240514 181.996325 
L 196.745565 182.580575 
L 198.260719 182.230025 
L 198.76577 181.996325 
L 199.270822 181.996325 
L 199.775873 182.931125 
L 201.796078 182.113175 
L 202.301129 182.113175 
L 205.331437 180.594125 
L 206.341539 182.463725 
L 207.351642 183.749075 
L 208.361744 185.034425 
L 211.392052 189.124175 
L 214.927411 193.097075 
L 217.452667 195.317225 
L 218.967821 196.485725 
L 220.482974 198.004775 
L 220.988026 198.589025 
L 221.493077 198.705875 
L 222.503179 199.290125 
L 223.008231 200.108075 
L 223.513282 200.108075 
L 224.018333 200.458625 
L 224.523384 201.159725 
L 225.028436 201.276575 
L 225.533487 201.977675 
L 226.038538 201.977675 
L 227.048641 203.263025 
L 228.058743 203.964125 
L 228.563794 204.080975 
L 229.068846 204.314675 
L 230.078948 204.314675 
L 230.583999 204.197825 
L 231.089051 204.314675 
L 231.594102 204.548375 
L 232.099153 205.249475 
L 232.604204 204.665225 
L 235.129461 205.950575 
L 237.654717 207.703325 
L 238.159768 207.820175 
L 241.695127 209.572925 
L 242.200178 210.040325 
L 242.705229 210.157175 
L 243.210281 210.858275 
L 243.715332 211.208825 
L 244.220383 211.909925 
L 244.725434 212.026775 
L 251.291101 219.505175 
L 253.816357 221.725325 
L 254.826459 222.309575 
L 255.331511 222.543275 
L 255.836562 223.010675 
L 256.341613 223.010675 
L 256.846664 223.127525 
L 257.351716 223.127525 
L 257.856767 223.244375 
L 258.361818 223.244375 
L 258.866869 223.361225 
L 261.897177 223.361225 
L 262.907279 223.127525 
L 263.412331 223.127525 
L 264.422433 222.776975 
L 264.927484 222.660125 
L 266.442638 222.075875 
L 266.947689 222.075875 
L 268.462843 221.725325 
L 268.967894 221.491625 
L 270.483048 219.972575 
L 281.594176 207.002225 
L 283.109329 204.782075 
L 285.129534 201.627125 
L 286.644688 200.341775 
L 288.664893 199.056425 
L 289.169945 198.939575 
L 291.695201 197.771075 
L 292.705303 196.953125 
L 293.715406 196.368875 
L 295.23056 195.550925 
L 296.240662 194.499275 
L 296.745713 194.499275 
L 297.250765 193.915025 
L 297.755816 193.798175 
L 298.260867 193.330775 
L 298.765918 193.330775 
L 299.27097 192.863375 
L 301.291175 192.045425 
L 301.796226 192.045425 
L 302.806328 191.694875 
L 303.31138 191.578025 
L 304.321482 191.227475 
L 304.826533 191.110625 
L 305.331585 190.876925 
L 305.836636 190.876925 
L 306.341687 190.643225 
L 306.846738 190.175825 
L 307.35179 190.058975 
L 308.866943 189.241025 
L 309.371995 189.474725 
L 314.422507 187.254575 
L 315.43261 187.020875 
L 316.442712 187.020875 
L 318.967968 186.436625 
L 319.47302 186.436625 
L 320.988173 186.086075 
L 321.998276 185.735525 
L 322.503327 185.618675 
L 323.51343 185.268125 
L 326.038686 184.683875 
L 327.048788 184.333325 
L 331.089198 183.398525 
L 332.099301 182.931125 
L 334.624557 180.710975 
L 335.63466 180.360425 
L 336.139711 180.243575 
L 336.644762 180.009875 
L 337.149813 180.827825 
L 338.664967 182.463725 
L 339.67507 183.515375 
L 340.685172 184.567025 
L 343.71548 187.488275 
L 344.725582 188.539925 
L 347.75589 191.227475 
L 354.321556 195.901475 
L 358.361966 199.757525 
L 358.867017 200.341775 
L 359.87712 200.809175 
L 360.382171 201.393425 
L 361.392273 201.159725 
L 362.402376 201.159725 
L 362.907427 201.743975 
L 363.412478 201.743975 
L 363.91753 201.977675 
L 364.422581 202.561925 
L 364.927632 202.445075 
L 365.432683 202.912475 
L 365.937735 202.795625 
L 366.442786 203.263025 
L 366.947837 203.263025 
L 367.452888 203.730425 
L 367.95794 203.613575 
L 368.462991 204.080975 
L 368.968042 203.964125 
L 369.473093 204.431525 
L 370.483196 204.782075 
L 370.988247 204.898925 
L 371.493298 205.249475 
L 372.503401 205.483175 
L 373.008452 206.067425 
L 373.513504 205.833725 
L 374.018555 206.067425 
L 374.523606 205.950575 
L 375.028657 205.716875 
L 375.533709 205.833725 
L 376.03876 205.833725 
L 377.048862 206.067425 
L 378.058965 206.534825 
L 378.564016 206.534825 
L 379.574119 207.119075 
L 380.584221 207.586475 
L 381.594324 207.586475 
L 382.604426 208.170725 
L 383.109477 207.937025 
L 383.614529 208.521275 
L 384.11958 208.170725 
L 384.624631 208.638125 
L 385.129682 208.521275 
L 385.634734 208.754975 
L 386.139785 208.754975 
L 386.644836 209.339225 
L 387.149887 209.222375 
L 388.15999 210.040325 
L 388.665041 210.624575 
L 390.685246 211.559375 
L 391.190297 211.325675 
L 392.705451 212.143625 
L 395.230707 213.779525 
L 395.735759 213.896375 
L 396.24081 213.662675 
L 396.745861 213.662675 
L 398.261015 212.844725 
L 398.766066 212.377325 
L 399.776169 211.091975 
L 400.28122 210.507725 
L 401.796374 206.534825 
L 402.301425 204.782075 
L 402.806476 203.496725 
L 403.311527 199.757525 
L 404.32163 197.186825 
L 405.331732 195.317225 
L 405.836784 196.602575 
L 406.341835 196.368875 
L 406.846886 196.368875 
L 407.856989 194.732975 
L 408.36204 193.915025 
L 409.877194 192.279125 
L 410.887296 191.461175 
L 411.392347 191.344325 
L 411.897399 190.993775 
L 412.907501 190.760075 
L 413.412552 190.760075 
L 414.422655 190.993775 
L 416.947911 192.629675 
L 417.452962 192.746525 
L 420.988321 194.499275 
L 421.998424 195.083525 
L 432.6045 199.874375 
L 433.109551 199.991225 
L 434.624705 200.575475 
L 435.129756 200.692325 
L 436.139859 201.042875 
L 437.149961 201.276575 
L 437.655012 201.276575 
L 438.160064 201.393425 
L 438.665115 201.393425 
L 439.675217 201.159725 
L 451.796447 195.434075 
L 452.301499 195.083525 
L 452.80655 194.966675 
L 454.321704 194.031875 
L 456.341909 193.097075 
L 457.352011 193.447625 
L 457.857062 193.097075 
L 457.857062 193.097075 
" clip-path="url(#pd5f746e03c)" style="fill: none; stroke-dasharray: 6.29,2.72; stroke-dashoffset: 0; stroke: #d55e00; stroke-width: 1.7"/>
   </g>
   <g id="patch_3">
    <path d="M 34.119063 287.511875 
L 34.119063 7.071875 
" style="fill: none; stroke: #222222; stroke-width: 0.9; stroke-linejoin: miter; stroke-linecap: square"/>
   </g>
   <g id="patch_4">
    <path d="M 457.857062 287.511875 
L 457.857062 7.071875 
" style="fill: none; stroke: #222222; stroke-width: 0.9; stroke-linejoin: miter; stroke-linecap: square"/>
   </g>
   <g id="patch_5">
    <path d="M 34.119063 287.511875 
L 457.857062 287.511875 
" style="fill: none; stroke: #222222; stroke-width: 0.9; stroke-linejoin: miter; stroke-linecap: square"/>
   </g>
   <g id="patch_6">
    <path d="M 34.119063 7.071875 
L 457.857062 7.071875 
" style="fill: none; stroke: #222222; stroke-width: 0.9; stroke-linejoin: miter; stroke-linecap: square"/>
   </g>
   <g id="text_24">
    <text style="font-weight: 700; font-size: 11px; font-family: 'Times New Roman', 'DejaVu Serif', serif; text-anchor: start" x="42.593823" y="19.978487" transform="rotate(-0 42.593823 19.978487)">(c)</text>
   </g>
   <g id="legend_1">
    <g id="line2d_68">
     <path d="M 384.532062 19.571875 
L 396.532062 19.571875 
L 408.532062 19.571875 
" style="fill: none; stroke: #0072b2; stroke-width: 1.7; stroke-linecap: square"/>
    </g>
    <g id="text_25">
     <text style="font-size: 10px; font-family: 'Times New Roman', 'DejaVu Serif', serif; text-anchor: start" x="415.532062" y="23.071875" transform="rotate(-0 415.532062 23.071875)">Original</text>
    </g>
    <g id="line2d_69">
     <path d="M 384.532062 33.729687 
L 396.532062 33.729687 
L 408.532062 33.729687 
" style="fill: none; stroke-dasharray: 6.29,2.72; stroke-dashoffset: 0; stroke: #d55e00; stroke-width: 1.7"/>
    </g>
    <g id="text_26">
     <text style="font-size: 10px; font-family: 'Times New Roman', 'DejaVu Serif', serif; text-anchor: start" x="415.532062" y="37.229687" transform="rotate(-0 415.532062 37.229687)">J16-M</text>
    </g>
   </g>
  </g>
 </g>
 <defs>
  <clipPath id="pd5f746e03c">
   <rect x="34.119063" y="7.071875" width="423.738" height="280.44"/>
  </clipPath>
 </defs>
</svg>
